<svg width="185" height="67" viewBox="0 0 185 67" fill="none" xmlns="http://www.w3.org/2000/svg">
<g opacity="0.7" clip-path="url(#clip0_812_9719)">
<path d="M92.5131 36.8991H96.1348V17.2329H92.5131V25.2448H84.8847V17.2329H81.2622V36.8991H84.8847V28.7191H92.5131V36.8991ZM104.597 36.8991C106.3 36.8974 107.934 36.2219 109.138 35.0209C110.343 33.8199 111.02 32.1915 111.022 30.4931V22.0262H107.593V30.4928C107.593 30.885 107.516 31.2734 107.365 31.6358C107.215 31.9982 106.994 32.3275 106.716 32.6049C106.437 32.8823 106.107 33.1023 105.744 33.2524C105.38 33.4025 104.991 33.4798 104.597 33.4798C104.204 33.4798 103.814 33.4025 103.451 33.2524C103.087 33.1023 102.757 32.8823 102.479 32.6049C102.2 32.3275 101.98 31.9982 101.829 31.6358C101.679 31.2734 101.601 30.885 101.601 30.4928V22.0262H98.1712V30.4928C98.1727 32.1914 98.8502 33.82 100.055 35.0211C101.26 36.2222 102.893 36.8976 104.597 36.8991ZM120.072 36.8991C116.394 36.8991 113.122 33.8075 113.122 29.2934V17.2329H116.563V23.7403C117.082 23.2004 117.711 22.777 118.407 22.4986C119.103 22.2201 119.85 22.093 120.6 22.1255C124.442 22.1255 127.745 25.3265 127.745 29.5127C127.745 33.753 124.163 36.8991 120.074 36.8991H120.072ZM120.683 33.7251C122.659 33.7251 124.443 31.7835 124.443 29.5127C124.443 27.2419 122.659 25.2993 120.683 25.2993C119.582 25.329 118.537 25.7859 117.769 26.5728C117 27.3596 116.571 28.4142 116.571 29.5122C116.571 30.6101 117 31.6647 117.769 32.4516C118.537 33.2384 119.582 33.6953 120.683 33.7251ZM141.728 31.2774C141.728 23.8909 133.523 26.1893 133.523 22.9887C133.523 21.265 134.676 20.7173 135.938 20.7173C136.954 20.7173 138.298 21.4829 139.175 22.4137L141.425 19.7875C140.301 18.283 138.023 17.2433 136.158 17.2433C132.425 17.2433 129.736 19.4048 129.736 22.9887C129.736 29.6364 137.941 27.5294 137.941 31.2509C137.941 32.3985 136.817 33.4117 135.527 33.4117C133.496 33.4117 132.837 32.4268 131.904 31.387L129.407 33.9581C130.999 35.9008 132.974 36.886 135.334 36.886C138.874 36.886 141.728 34.6976 141.728 31.277L141.728 31.2774ZM158.459 29.3183C158.459 33.5041 155.155 36.7047 151.313 36.7047C150.564 36.7371 149.816 36.6099 149.12 36.3314C148.424 36.053 147.796 35.6297 147.277 35.0899V41.6303H143.836V29.5392C143.836 25.0231 147.11 21.9342 150.786 21.9342C154.874 21.9342 158.458 25.0799 158.458 29.3203L158.459 29.3183ZM155.159 29.3183C155.159 27.0467 153.374 25.1048 151.399 25.1048C150.297 25.133 149.249 25.5891 148.48 26.3762C147.71 27.1634 147.28 28.2191 147.28 29.3183C147.28 30.4174 147.71 31.4731 148.48 32.2602C149.249 33.0473 150.297 33.5036 151.399 33.5317C153.375 33.5317 155.159 31.5877 155.159 29.3183ZM183.79 33.7241C181.76 33.7241 181.184 32.8491 181.184 31.5081V25.572H184.339V22.563H181.184V18.5957L177.7 20.1546V32.2468C177.7 35.3388 179.839 36.8985 182.774 36.8985C183.234 36.9068 183.694 36.8702 184.147 36.7891L184.998 33.6706C184.614 33.6972 184.175 33.7244 183.79 33.7244L183.79 33.7241Z" fill="white"/>
<path d="M121.784 48.0218C121.804 48.2138 121.765 48.4072 121.672 48.5766C121.579 48.7459 121.437 48.8832 121.264 48.9704C121.092 49.0576 120.897 49.0906 120.705 49.065C120.513 49.0395 120.333 48.9566 120.19 48.8273C120.046 48.698 119.945 48.5283 119.9 48.3406C119.855 48.1529 119.868 47.9561 119.938 47.776C120.007 47.5959 120.13 47.441 120.289 47.3318C120.449 47.2225 120.638 47.164 120.831 47.164C120.951 47.1539 121.072 47.1685 121.186 47.2068C121.3 47.2451 121.405 47.3064 121.494 47.3868C121.584 47.4673 121.656 47.5651 121.705 47.6744C121.755 47.7836 121.782 47.9019 121.784 48.0218ZM120.007 55.2279H121.652V49.69H120.007V55.2279ZM111.4 54.0742C110.967 54.0742 110.681 53.8226 110.681 53.1947V50.9773H112.013V49.69H110.681V48.2194H109.32L109.128 49.6903L108.277 49.7533V50.9777H109.035V53.2143C109.035 54.4976 109.581 55.3616 110.953 55.3616C111.373 55.361 111.79 55.2931 112.188 55.1606L111.928 53.969C111.759 54.0327 111.581 54.0681 111.4 54.0738L111.4 54.0742ZM95.291 53.9414C94.2246 53.9414 93.5275 53.0726 93.5275 51.5769C93.5275 50.1185 94.3176 49.2389 95.3183 49.2389C95.5607 49.2457 95.7993 49.3004 96.0203 49.3997C96.2414 49.4991 96.4404 49.6412 96.606 49.8178L97.4757 48.7628C97.1915 48.4675 96.851 48.2318 96.4742 48.0696C96.0973 47.9074 95.6917 47.822 95.2813 47.8185C93.4376 47.8185 91.8369 49.2182 91.8369 51.6321C91.8369 54.0828 93.3819 55.3616 95.2325 55.3616C95.6803 55.3699 96.1243 55.2782 96.532 55.0933C96.9397 54.9084 97.3007 54.6348 97.5887 54.2928L96.7191 53.2584C96.5432 53.4663 96.3249 53.6345 96.0788 53.7518C95.8327 53.8691 95.5644 53.9328 95.2917 53.9387L95.291 53.9414ZM105.86 50.6577H105.819L105.7 49.69H104.357V55.2279H106.003V52.0186C106.299 51.2635 106.808 50.9946 107.226 50.9946C107.429 50.9974 107.631 51.0275 107.826 51.0839L108.1 49.6675C107.89 49.5821 107.663 49.544 107.437 49.5558C107.099 49.5805 106.773 49.6961 106.495 49.8904C106.218 50.0846 105.998 50.3503 105.859 50.6592L105.86 50.6577ZM116.475 49.4028V49.6969L115.736 49.7527V50.977H116.475V55.2276H118.121V50.977H119.12V49.6896H118.121V49.3555C118.121 48.7818 118.353 48.5625 118.754 48.5625C118.952 48.5667 119.147 48.6072 119.33 48.6821L119.626 47.4723C119.272 47.3422 118.897 47.2755 118.52 47.2754C117.021 47.2754 116.476 48.2353 116.476 49.4041L116.475 49.4028ZM103.22 52.2145C103.221 52.4575 103.197 52.7 103.151 52.9385H99.8312C99.8725 53.2818 100.046 53.5957 100.314 53.8143C100.583 54.0329 100.926 54.1392 101.272 54.1108C101.698 54.1024 102.113 53.977 102.473 53.7484L103.017 54.7376C102.435 55.1324 101.75 55.3492 101.046 55.3613C99.4625 55.3613 98.2364 54.2925 98.2364 52.4603C98.2364 50.6636 99.522 49.5551 100.856 49.5551C102.438 49.5551 103.222 50.7022 103.222 52.2134L103.22 52.2145ZM101.814 51.8545C101.814 51.2456 101.548 50.8071 100.891 50.8071C100.372 50.8071 99.9228 51.1549 99.8101 51.8545H101.814ZM113.098 55.2282H114.744V49.6903H113.1L113.098 55.2282ZM113.923 47.1648C113.757 47.1818 113.599 47.2465 113.469 47.3511C113.338 47.4558 113.242 47.5957 113.19 47.7542C113.138 47.9126 113.133 48.0827 113.176 48.2438C113.219 48.4049 113.308 48.5502 113.432 48.6619C113.556 48.7737 113.71 48.8471 113.875 48.8734C114.04 48.8996 114.209 48.8777 114.362 48.81C114.515 48.7423 114.645 48.6319 114.736 48.4921C114.827 48.3524 114.876 48.1892 114.876 48.0225C114.874 47.9024 114.847 47.784 114.798 47.6746C114.748 47.5652 114.676 47.4672 114.587 47.3867C114.497 47.3062 114.392 47.2449 114.278 47.2067C114.164 47.1685 114.043 47.1543 113.923 47.1648ZM161.766 49.5561C161.428 49.5699 161.096 49.651 160.789 49.7944C160.483 49.9379 160.208 50.1409 159.981 50.3916H159.941L159.822 49.6903H158.479V55.2282H160.125V51.4904C160.487 51.1456 160.74 50.9522 161.153 50.9522C161.628 50.9522 161.845 51.2015 161.845 51.9987V55.2265H163.49V51.7886C163.49 50.4043 162.976 49.5548 161.768 49.5548L161.766 49.5561ZM156.782 54.0742C156.349 54.0742 156.063 53.8221 156.063 53.1943V50.977H157.395V49.6896H156.063V48.2191H154.702L154.51 49.69L153.659 49.753V50.9773H154.417V53.2143C154.417 54.4976 154.963 55.3616 156.335 55.3616C156.755 55.361 157.172 55.2931 157.57 55.1606L157.31 53.969C157.141 54.0322 156.963 54.0671 156.782 54.0725V54.0742ZM169.548 52.2124C169.549 52.4554 169.526 52.6979 169.479 52.9365H166.156C166.197 53.2797 166.371 53.5936 166.639 53.8122C166.908 54.0308 167.251 54.1371 167.597 54.1087C168.023 54.1003 168.438 53.9749 168.798 53.7463L169.342 54.7355C168.76 55.1304 168.075 55.3471 167.371 55.3592C165.788 55.3592 164.561 54.2903 164.561 52.4582C164.561 50.6615 165.847 49.5531 167.181 49.5531C168.763 49.5531 169.547 50.7002 169.547 52.2114L169.548 52.2124ZM168.142 51.8524C168.142 51.2435 167.876 50.805 167.219 50.805C166.7 50.805 166.251 51.1529 166.138 51.8524H168.142ZM151.241 50.6564H151.201L151.082 49.6885H149.739V55.2265H151.385V52.0173C151.681 51.2622 152.189 50.9933 152.608 50.9933C152.811 50.9961 153.013 51.026 153.207 51.0825L153.482 49.6661C153.272 49.5808 153.046 49.5427 152.819 49.5544C152.481 49.5789 152.155 49.6943 151.877 49.8886C151.599 50.0829 151.379 50.3487 151.24 50.6577L151.241 50.6564ZM172.186 50.6564H172.145L172.026 49.6885H170.683V55.2265H172.328V52.0173C172.625 51.2622 173.133 50.9933 173.552 50.9933C173.755 50.9961 173.956 51.026 174.151 51.0825L174.425 49.6661C174.215 49.5808 173.989 49.5427 173.763 49.5544C173.424 49.579 173.099 49.6945 172.821 49.8888C172.543 50.0831 172.323 50.3488 172.185 50.6577L172.186 50.6564ZM127.759 52.2145C127.76 52.4575 127.737 52.7 127.69 52.9385H124.367C124.408 53.2818 124.582 53.5957 124.85 53.8143C125.119 54.0329 125.462 54.1392 125.808 54.1108C126.234 54.1024 126.649 53.977 127.009 53.7484L127.553 54.7376C126.971 55.1324 126.286 55.3492 125.582 55.3613C123.999 55.3613 122.772 54.2925 122.772 52.4603C122.772 50.6636 124.058 49.5551 125.392 49.5551C126.975 49.5558 127.759 50.7026 127.759 52.2145ZM126.353 51.8545C126.353 51.2456 126.087 50.8071 125.43 50.8071C124.911 50.8071 124.462 51.1549 124.349 51.8545H126.353ZM143.092 50.2933C143.092 52.0035 141.783 52.7599 140.236 52.7599H139.335V55.2282H137.685V47.9532H140.191C141.797 47.9532 143.091 48.526 143.091 50.2937L143.092 50.2933ZM141.475 50.2933C141.475 49.532 140.987 49.259 140.094 49.259H139.333V51.4539H140.138C141.045 51.4539 141.474 51.0508 141.474 50.2933H141.475ZM132.215 47.4081H133.861V55.2282H132.518L132.4 54.6793H132.359C131.972 55.0869 131.443 55.3313 130.881 55.362C129.501 55.362 128.61 54.2693 128.61 52.4609C128.61 50.6526 129.743 49.5558 130.913 49.5558C131.168 49.5521 131.42 49.6017 131.655 49.7012C131.889 49.8008 132.101 49.948 132.275 50.1337L132.215 49.2945V47.4081ZM132.215 51.2494C131.964 51.0212 131.636 50.8959 131.296 50.8987C130.763 50.8987 130.296 51.3897 130.296 52.4427C130.296 53.5298 130.673 54.0194 131.31 54.0194C131.491 54.0207 131.669 53.9758 131.827 53.889C131.986 53.8021 132.12 53.6762 132.215 53.5232L132.215 51.2494ZM148.357 52.062V55.2282H147.015L146.896 54.661H146.855C146.423 55.0875 145.847 55.3376 145.239 55.3623C145.018 55.3703 144.798 55.3324 144.592 55.251C144.386 55.1697 144.2 55.0467 144.044 54.8898C143.889 54.7328 143.767 54.5454 143.688 54.3393C143.609 54.1333 143.573 53.913 143.584 53.6925C143.584 52.5258 144.515 51.8941 146.712 51.6631C146.717 51.55 146.697 51.437 146.654 51.3323C146.611 51.2276 146.545 51.1337 146.461 51.0572C146.377 50.9808 146.277 50.9237 146.169 50.8901C146.06 50.8564 145.946 50.847 145.833 50.8625C145.308 50.9003 144.802 51.0726 144.364 51.3628L143.779 50.2853C144.486 49.8274 145.307 49.575 146.151 49.5565C147.571 49.5565 148.357 50.3653 148.357 52.0624L148.357 52.062ZM146.712 52.6519C145.542 52.8095 145.16 53.143 145.16 53.5615C145.16 53.9184 145.406 54.0929 145.797 54.0929C145.975 54.0831 146.148 54.0358 146.306 53.9541C146.464 53.8725 146.602 53.7583 146.712 53.6191L146.712 52.6519Z" fill="white"/>
<path d="M175.698 29.4244V29.4933C175.694 30.8009 175.315 32.0801 174.605 33.1796C173.932 34.2511 172.996 35.134 171.886 35.7453C170.776 36.3565 169.528 36.676 168.26 36.6736H168.052C166.982 36.675 165.923 36.4559 164.942 36.03C164.477 35.8351 164.031 35.5949 163.613 35.3129L160.622 38.2953C160.783 38.8011 160.768 39.3465 160.578 39.8423C160.388 40.3382 160.035 40.7553 159.577 41.0257C159.119 41.2961 158.583 41.4037 158.055 41.3311C157.528 41.2585 157.041 41.0099 156.674 40.6258C156.306 40.2418 156.08 39.7449 156.032 39.2164C155.985 38.6878 156.118 38.1587 156.41 37.7153C156.703 37.2719 157.138 36.9404 157.643 36.7749C158.149 36.6094 158.696 36.6196 159.195 36.8039L162.096 33.9115C161.619 33.3253 161.241 32.6642 160.98 31.9551C160.676 31.1151 160.524 30.2281 160.531 29.3351V29.0593C160.538 27.7719 160.918 26.5139 161.624 25.436C161.961 24.9053 162.366 24.421 162.83 23.9957L154.11 17.7324L153.476 17.2525C153.007 17.5387 152.469 17.6913 151.92 17.6938C151.32 17.6924 150.733 17.5138 150.235 17.1804C149.737 16.847 149.349 16.3738 149.12 15.8206C148.891 15.2674 148.832 14.6591 148.95 14.0724C149.068 13.4857 149.357 12.947 149.782 12.5244C150.207 12.1017 150.748 11.8141 151.337 11.6978C151.925 11.5816 152.535 11.6419 153.09 11.8711C153.644 12.1003 154.118 12.4882 154.451 12.9858C154.785 13.4834 154.963 14.0683 154.963 14.6666C154.96 14.9371 154.921 15.2059 154.846 15.4657C157.854 17.741 163.011 21.6342 164.579 22.8208C165.347 22.4298 166.178 22.1742 167.034 22.0651V18.4691C166.542 18.2669 166.122 17.9217 165.829 17.4785C165.537 17.0352 165.385 16.5144 165.393 15.9839C165.393 15.2642 165.68 14.574 166.191 14.065C166.701 13.5561 167.393 13.2702 168.115 13.2702C168.837 13.2702 169.529 13.5561 170.04 14.065C170.55 14.574 170.837 15.2642 170.837 15.9839C170.846 16.5141 170.695 17.0348 170.403 17.4781C170.111 17.9214 169.692 18.2667 169.2 18.4691V22.0648C170.183 22.1944 171.128 22.5207 171.981 23.0242C173.119 23.679 174.066 24.6175 174.73 25.7477C175.376 26.8653 175.71 28.1346 175.698 29.4244ZM172.12 29.4288C172.12 29.2909 172.114 29.1672 172.103 29.0258C172.035 28.3549 171.808 27.7098 171.441 27.1432C171.071 26.5783 170.563 26.1165 169.965 25.8011C169.383 25.5065 168.739 25.3563 168.086 25.3633H168.017C167.302 25.3601 166.603 25.5718 166.011 25.9707C165.399 26.3625 164.899 26.907 164.563 27.5503C164.249 28.1369 164.089 28.7932 164.098 29.4581V29.665C164.11 30.3497 164.34 31.0128 164.755 31.5587C165.145 32.1481 165.683 32.6256 166.315 32.9438C166.86 33.2288 167.468 33.3746 168.084 33.3682H168.257C169.312 33.3682 170.245 32.858 171.058 31.9586C171.725 31.2834 172.105 30.3769 172.118 29.4288H172.12Z" fill="white"/>
<path d="M49.969 29.9515C49.9105 31.3326 49.9565 32.7181 49.9559 34.1015C49.9552 35.485 49.9966 36.8698 49.9448 38.2516C49.8805 39.9573 49.0236 40.531 47.331 40.1718C46.3116 39.9556 45.619 39.313 44.9378 38.6128C42.0885 35.6825 39.1773 32.8091 36.4155 29.7995C35.4598 28.758 34.8187 28.7801 33.9124 29.6857C33.2272 30.3722 32.5026 31.0185 31.7422 31.6211C31.6012 31.7531 31.4342 31.8545 31.2517 31.9187C31.0693 31.9829 30.8755 32.0085 30.6826 31.994C30.4897 31.9795 30.3019 31.9252 30.1312 31.8345C29.9605 31.7438 29.8106 31.6186 29.691 31.467C29.0721 30.8031 29.0835 29.995 29.7304 29.4265C32.2263 27.2346 34.7689 25.092 37.3198 22.9629C38.0414 22.3607 38.7631 22.7168 39.408 23.1929C40.5228 24.0158 41.658 24.8159 42.7275 25.6964C44.249 26.9506 45.7545 28.0179 47.9378 27.7397C49.3877 27.5545 50.0305 28.4898 49.969 29.9515ZM36.8205 32.9339C35.5729 31.5012 34.7333 31.2002 33.2872 32.7522C32.98 33.1087 32.6003 33.3959 32.1732 33.5947C31.7461 33.7936 31.2815 33.8996 30.8102 33.9056C30.3388 33.9117 29.8716 33.8177 29.4395 33.6299C29.0074 33.4421 28.6204 33.1648 28.3041 32.8163C26.9773 31.416 27.0831 29.3689 28.6274 27.8317C29.4573 27.0043 30.3698 26.2545 31.2623 25.4895C32.1326 24.7435 33.1202 23.921 32.1914 22.7361C31.2419 21.5247 30.2412 22.2879 29.3473 23.0436C28.3445 23.8927 27.302 24.6984 26.3068 25.5554C24.831 26.8289 23.4084 28.0299 21.1826 27.7083C19.8458 27.5152 19.2116 28.4802 19.2185 29.805C19.2244 31.1868 19.2185 32.5681 19.2185 33.9499C19.2185 35.0551 19.213 36.1603 19.2185 37.2656C19.2299 39.9963 19.5716 40.4265 22.3534 40.3052C24.469 40.2128 26.3096 40.4158 27.6239 42.3371C28.108 43.0438 28.9012 43.4813 29.7899 42.8928C30.643 42.3281 30.6226 41.5104 30.208 40.6972C29.9023 40.098 29.6499 39.4861 30.2996 39.0396C31.1101 38.4825 31.5548 39.2513 32.0199 39.7115C33.2488 40.9281 34.4497 42.1733 35.6576 43.411C36.3094 44.0787 37.0438 44.4107 37.8447 43.7274C38.7154 42.9842 38.4861 42.1251 37.8748 41.3453C37.4498 40.8033 36.9328 40.3341 36.4702 39.8208C36.05 39.3547 35.5365 38.8597 36.1742 38.2312C36.7637 37.6489 37.3101 37.9699 37.7904 38.4494C38.7209 39.3778 39.6576 40.3007 40.5681 41.2481C41.3084 42.0179 42.1355 42.5519 43.0795 41.7028C44.1549 40.7351 43.5138 39.8412 42.7396 39.0452C40.7614 37.0112 38.6808 35.0692 36.8215 32.9342L36.8205 32.9339ZM51.3539 61.7051C49.183 61.7395 47.571 62.4466 46.1757 64.1817C43.8372 67.0903 41.2852 67.6846 37.8374 66.255C36.8186 65.7772 35.7065 65.5294 34.5806 65.5294C33.4547 65.5294 32.3427 65.7772 31.3238 66.255C27.876 67.685 25.3241 67.0903 22.9855 64.1817C21.5903 62.4466 19.9772 61.7392 17.8074 61.7051C13.6099 61.6392 11.5241 60.0665 10.4549 56.0423C9.93347 54.0794 8.95939 52.7893 7.14055 51.8468C3.09485 49.7511 2.07997 47.4279 2.9759 42.9811C3.2712 41.5149 3.45481 40.0056 2.32997 38.8483C0.62835 37.0974 -0.0452439 35.2819 0.00454932 33.5C-0.0455897 31.718 0.626967 29.9026 2.32997 28.1516C3.45481 26.9943 3.2712 25.4851 2.9759 24.0189C2.07997 19.5717 3.09589 17.2485 7.14055 15.1531C8.95939 14.2109 9.93347 12.9206 10.4549 10.9576C11.5241 6.93343 13.6102 5.36072 17.8074 5.29487C19.9782 5.2604 21.5903 4.55333 22.9855 2.81824C25.3241 -0.09035 27.876 -0.684686 31.3238 0.744961C32.3494 1.2024 33.4571 1.44864 34.5804 1.46892C35.7038 1.44864 36.8115 1.2024 37.8371 0.744961C41.2849 -0.685031 43.8368 -0.09035 46.1754 2.81824C47.5706 4.55333 49.1837 5.26074 51.3535 5.29487C55.551 5.36072 57.6368 6.93343 58.706 10.9576C59.2274 12.9206 60.2015 14.2106 62.0203 15.1531C66.066 17.2488 67.0809 19.572 66.185 24.0189C65.8897 25.4851 65.7061 26.9943 66.8309 28.1516C68.5325 29.9026 69.2061 31.718 69.1563 33.5C69.2065 35.2819 68.5339 37.0974 66.8309 38.8483C65.7061 40.0056 65.8897 41.5149 66.185 42.9811C67.0809 47.4283 66.065 49.7511 62.0203 51.8468C60.2015 52.789 59.2274 54.0794 58.706 56.0423C57.6375 60.0662 55.5514 61.6399 51.3539 61.7051ZM63.2704 33.5003C63.2704 27.8432 61.5877 22.3131 58.4353 17.6094C55.2828 12.9057 50.8022 9.23954 45.5598 7.07465C40.3175 4.90976 34.549 4.34333 28.9837 5.44698C23.4185 6.55063 18.3065 9.2748 14.2942 13.275C10.2819 17.2752 7.54947 22.3717 6.44248 27.9202C5.33549 33.4686 5.90365 39.2197 8.07509 44.4462C10.2465 49.6727 13.9238 54.1399 18.6417 57.2828C23.3597 60.4257 28.9065 62.1032 34.5808 62.1032C38.3484 62.1032 42.079 61.3634 45.5598 59.926C49.0406 58.4885 52.2033 56.3817 54.8674 53.7256C57.5314 51.0696 59.6447 47.9165 61.0865 44.4462C62.5283 40.9759 63.2704 37.2565 63.2704 33.5003ZM59.891 33.5003C59.8913 38.4914 58.4071 43.3706 55.6261 47.5207C52.845 51.6708 48.892 54.9055 44.2669 56.8158C39.6419 58.726 34.5525 59.226 29.6424 58.2525C24.7323 57.279 20.2221 54.8757 16.682 51.3466C13.142 47.8175 10.7311 43.321 9.75431 38.4258C8.77752 33.5306 9.27868 28.4566 11.1944 23.8454C13.1101 19.2341 16.3544 15.2929 20.5169 12.5199C24.6794 9.74695 29.5732 8.2669 34.5794 8.2669C41.2899 8.2741 47.7236 10.9349 52.4688 15.6655C57.214 20.396 59.8833 26.8101 59.891 33.5003ZM56.9757 33.5003C56.9757 29.0844 55.6622 24.7676 53.2014 21.0959C50.7406 17.4242 47.243 14.5625 43.1509 12.8726C39.0587 11.1827 34.5558 10.7406 30.2116 11.6021C25.8675 12.4636 21.8771 14.5901 18.7451 17.7127C15.6131 20.8352 13.4803 24.8136 12.6162 29.1447C11.7521 33.4758 12.1957 37.9651 13.8907 42.0448C15.5858 46.1246 18.4563 49.6116 22.1391 52.0649C25.822 54.5182 30.1518 55.8276 34.5811 55.8276C40.5185 55.8208 46.2108 53.4663 50.4091 49.2806C54.6074 45.0949 56.969 39.4198 56.9757 33.5003Z" fill="white"/>
</g>
<defs>
<clipPath id="clip0_812_9719">
<rect width="185" height="67" fill="white"/>
</clipPath>
</defs>
</svg>
