<svg width="169" height="66" viewBox="0 0 169 66" fill="none" xmlns="http://www.w3.org/2000/svg">
<g opacity="0.7">
<path d="M22.8544 51.3931V65.2172H18.3657V31.103H29.9929C31.407 31.0614 32.815 31.3041 34.1335 31.8168C35.4521 32.3295 36.6543 33.1016 37.6689 34.0875C38.6614 35.0116 39.453 36.1302 39.9942 37.3736C40.5355 38.617 40.8148 39.9586 40.8148 41.3148C40.8148 42.6709 40.5355 44.0125 39.9942 45.2559C39.453 46.4993 38.6614 47.6179 37.6689 48.542C35.6373 50.468 32.9249 51.5097 30.1264 51.4387L22.8544 51.3931ZM22.8544 35.2975V47.1951H30.194C30.9894 47.2163 31.7811 47.0782 32.5224 46.789C33.2637 46.4998 33.9397 46.0653 34.5106 45.5111C35.0815 44.9568 35.5359 44.294 35.847 43.5616C36.158 42.8292 36.3195 42.042 36.3219 41.2463C36.2926 39.6543 35.638 38.1378 34.4995 37.0246C33.361 35.9114 31.8302 35.291 30.238 35.2975H22.8544ZM52.5273 41.1111C55.3234 40.9523 58.0732 41.8772 60.205 43.6934C61.1545 44.6141 61.8961 45.7273 62.38 46.9583C62.8638 48.1892 63.0788 49.5094 63.0104 50.8303V65.2189H58.7685V61.964H58.5876C57.8318 63.2052 56.7658 64.2283 55.4946 64.9327C54.2234 65.637 52.7908 65.9984 51.3376 65.9811C48.9852 66.0674 46.6863 65.2663 44.897 63.7368C44.0612 63.0396 43.3931 62.1632 42.9423 61.1726C42.4915 60.182 42.2694 59.1026 42.2927 58.0145C42.2534 56.9038 42.4816 55.7999 42.958 54.7958C43.4345 53.7917 44.1453 52.9168 45.0305 52.2448C47.1608 50.7319 49.7386 49.9805 52.3482 50.112C54.5741 50.0255 56.785 50.5126 58.7685 51.5266V50.5396C58.7795 49.799 58.6237 49.0654 58.3127 48.3931C58.0018 47.7208 57.5435 47.1272 56.972 46.656C55.8112 45.6063 54.295 45.0367 52.7301 45.0623C51.5769 45.0376 50.4367 45.3095 49.4187 45.8519C48.4008 46.3943 47.5392 47.1891 46.9165 48.1601L43.0566 45.669C44.1132 44.1623 45.5388 42.952 47.197 42.1539C48.8553 41.3559 50.6906 40.9968 52.5273 41.1111ZM46.8709 58.0584C46.8512 58.6318 46.9717 59.2014 47.222 59.7177C47.4724 60.234 47.8449 60.6813 48.3074 61.021C49.2784 61.7866 50.4849 62.1916 51.7212 62.1668C53.5747 62.1566 55.349 61.4143 56.6577 60.1016C57.3535 59.5077 57.9139 58.7716 58.301 57.9427C58.6882 57.1139 58.8931 56.2117 58.902 55.2969C57.2395 54.1288 55.2298 53.5592 53.2016 53.6813C51.6065 53.6158 50.0324 54.0643 48.7113 54.9606C48.173 55.2853 47.7233 55.7381 47.4023 56.2785C47.0812 56.8189 46.8986 57.4304 46.8709 58.0584ZM67.9722 41.875H72.2361V45.669H72.4152C73.7165 42.6828 76.4104 41.1804 80.4731 41.1804H81.3941V45.669L79.4169 45.4662C77.5579 45.405 75.7505 46.0832 74.3908 47.3523C73.744 47.9702 73.2339 48.7169 72.8936 49.5442C72.5533 50.3715 72.3904 51.261 72.4152 52.1552V65.0161H67.9705V41.8767L67.9722 41.875ZM95.3332 65.5113C93.5761 65.5636 91.8682 64.9267 90.5742 63.7368C89.9351 63.0976 89.4356 62.3327 89.1072 61.4906C88.7787 60.6485 88.6286 59.7474 88.6662 58.8442V45.8701H84.5595V41.875H88.6662V34.7162H93.1548V41.875H98.8789V45.8701H93.0433V57.4973C92.976 58.0581 93.0206 58.6266 93.1747 59.17C93.3287 59.7133 93.5891 60.2207 93.9407 60.6627C94.4882 61.1933 95.2217 61.4908 95.9839 61.4942C96.3303 61.4908 96.6768 61.4536 97.0148 61.3809C97.3393 61.3032 97.6536 61.1984 97.9595 61.0666L99.3284 64.9722C98.0393 65.3877 96.6864 65.5703 95.3332 65.5113ZM103.188 41.875H107.386V45.108H107.565C108.315 43.8919 109.377 42.8996 110.641 42.235C111.961 41.5043 113.443 41.1178 114.951 41.1111C116.172 41.0191 117.399 41.1899 118.549 41.6121C119.698 42.0342 120.744 42.6978 121.616 43.5582C123.245 45.5037 124.05 48.0079 123.86 50.5379V65.2189H119.372V50.8303C119.463 50.0528 119.375 49.2649 119.117 48.5261C118.859 47.7872 118.436 47.1168 117.88 46.5654C117.324 46.0141 116.651 45.5962 115.91 45.3434C115.169 45.0906 114.381 45.0095 113.604 45.1063C112.76 45.0941 111.926 45.2785 111.166 45.6449C110.406 46.0113 109.742 46.5495 109.227 47.2171C108.05 48.6431 107.421 50.442 107.452 52.2904V65.2189H102.964L103.188 41.875ZM139.574 65.9828C137.991 66.0268 136.417 65.7354 134.955 65.1278C133.493 64.5202 132.176 63.6102 131.09 62.4575C129.969 61.2553 129.096 59.8433 128.521 58.3027C127.947 56.7621 127.683 55.1232 127.744 53.4802C127.608 50.1759 128.777 46.9506 130.999 44.5012C132.068 43.3956 133.346 42.5127 134.759 41.9035C136.171 41.2944 137.69 40.971 139.228 40.9522C140.766 40.9333 142.293 41.2193 143.72 41.7937C145.147 42.368 146.446 43.2193 147.542 44.2984C149.729 46.9357 150.829 50.3073 150.618 53.7269V54.1984H132.165C132.148 55.2224 132.339 56.2392 132.724 57.1879C133.11 58.1366 133.683 58.9977 134.409 59.7197C135.237 60.5613 136.255 61.1922 137.376 61.5595C138.498 61.9269 139.692 62.0199 140.857 61.8309C142.022 61.6419 143.125 61.1763 144.074 60.4731C145.022 59.77 145.788 58.8498 146.307 57.7897L150.211 59.6977C149.215 61.6117 147.708 63.2123 145.857 64.3215C143.951 65.4369 141.779 66.0115 139.571 65.9828H139.574ZM132.571 50.7187H146.038C145.996 49.9507 145.799 49.1991 145.46 48.5088C145.12 47.8186 144.645 47.2039 144.063 46.7016C142.724 45.5916 141.018 45.0231 139.282 45.108C137.721 45.0776 136.204 45.6206 135.018 46.634C133.742 47.6721 132.855 49.112 132.503 50.7187H132.571ZM158.945 65.2172H154.568V41.8767H158.766V45.6707H158.945C159.478 44.3394 160.442 43.2251 161.683 42.5054C162.892 41.6887 164.31 41.237 165.769 41.2041C166.873 41.1727 167.972 41.3635 169 41.7651L167.675 46.007C166.842 45.7401 165.968 45.6256 165.095 45.669C164.272 45.6694 163.46 45.8507 162.715 46.2C161.97 46.5493 161.311 47.0581 160.785 47.6903C159.58 48.9429 158.919 50.6203 158.943 52.358V65.2189L158.945 65.2172Z" fill="white"/>
<mask id="mask0_812_9738" style="mask-type:luminance" maskUnits="userSpaceOnUse" x="18" y="0" width="85" height="28">
<path d="M18.8013 0H102.76V27.0974H18.8013V0Z" fill="white"/>
</mask>
<g mask="url(#mask0_812_9738)">
<path d="M29.1409 0.00317383H29.8879C32.4804 0.0589437 35.0306 1.08984 36.8608 2.91335C36.1848 3.59611 35.4953 4.25183 34.8329 4.93458C33.8053 4.01523 32.5649 3.30374 31.2129 3.05362C29.2119 2.63619 27.0555 3.01137 25.3807 4.14029C24.4725 4.73639 23.7038 5.5218 23.1274 6.44268C22.551 7.36357 22.1805 8.39817 22.0413 9.47561C21.7455 11.5915 22.3522 13.8206 23.7465 15.465C24.4261 16.2676 25.2655 16.9199 26.2111 17.3803C27.1568 17.8406 28.188 18.0988 29.239 18.1385C31.2129 18.2501 33.2696 17.6518 34.7061 16.2863C35.8333 15.3247 36.3539 13.8628 36.5229 12.4416C34.1856 12.4416 31.8466 12.4551 29.5094 12.4416V9.57194H39.3553C39.8623 12.6511 39.1288 16.119 36.7628 18.321C35.1861 19.8809 33.0009 20.8003 30.7752 20.9811C28.6204 21.189 26.3947 20.7851 24.4782 19.7559C22.1832 18.5424 20.3513 16.4942 19.4505 14.0859C18.6106 11.8493 18.5855 9.38827 19.3795 7.13496C20.1177 5.08226 21.4701 3.30671 23.253 2.04976C24.9582 0.810992 27.0268 0.128234 29.1409 0.00317383ZM85.6308 0.726492H88.6457V20.6178C87.6453 20.6178 86.6313 20.6313 85.6308 20.6042C85.646 13.9879 85.6308 7.35635 85.6308 0.726492ZM46.0595 7.62168C47.9185 7.27354 49.9347 7.66393 51.4692 8.76412C52.8713 9.75352 53.828 11.2547 54.1326 12.9435C54.5129 14.8785 54.0329 16.9961 52.7654 18.5289C51.3999 20.2426 49.159 21.1619 46.9755 21.0217C44.9762 20.9101 43.031 19.9232 41.848 18.3058C40.5096 16.5229 40.1868 14.0707 40.9185 11.9819C41.6503 9.73925 43.7205 8.02728 46.0595 7.62168ZM46.482 10.2682C45.7215 10.4643 45.0185 10.8952 44.5115 11.5087C43.1443 13.1243 43.2288 15.7573 44.7362 17.2614C45.5948 18.1233 46.891 18.5289 48.0892 18.2923C48.6399 18.1875 49.1604 17.9618 49.6134 17.6316C50.0663 17.3014 50.4404 16.8748 50.7087 16.3826C51.6382 14.7264 51.3712 12.4415 49.9482 11.1453C49.4855 10.7286 48.9281 10.4309 48.3245 10.2781C47.7208 10.1252 47.0873 10.1218 46.482 10.2682ZM60.9923 7.62168C63.12 7.21777 65.4438 7.80251 67.0357 9.27788C69.6282 11.5763 69.9087 15.8824 67.6982 18.5289C66.3597 20.2003 64.1898 21.1197 62.0486 21.0217C60.007 20.9659 57.9926 19.9637 56.7808 18.3058C55.4136 16.4806 55.1179 13.9744 55.8936 11.8416C56.6676 9.66996 58.6973 8.01207 60.9923 7.62168ZM61.4148 10.2682C60.6543 10.4626 59.9496 10.8952 59.4426 11.4935C58.0906 13.0821 58.1464 15.6728 59.5981 17.1904C60.4566 18.0963 61.7951 18.5424 63.0355 18.2923C63.5845 18.183 64.1031 17.9555 64.5555 17.6258C65.0078 17.296 65.383 16.8718 65.655 16.3826C66.571 14.7112 66.304 12.428 64.8675 11.1318C64.4057 10.7178 63.8498 10.4229 63.248 10.2727C62.6463 10.1225 62.017 10.1198 61.4148 10.2682ZM73.6571 8.4295C75.2779 7.42733 77.4326 7.14848 79.1784 8.01207C79.7293 8.24867 80.1788 8.65258 80.6149 9.05649C80.6318 8.67962 80.6149 8.29092 80.6318 7.90053C81.5748 7.91405 82.5178 7.90053 83.476 7.91405V20.2003C83.4625 22.0526 82.9826 24.0163 81.6306 25.3683C80.1518 26.8589 77.8838 27.3186 75.8406 27.0127C73.6571 26.6916 71.7559 25.1182 70.9109 23.1257C71.7559 22.7201 72.6432 22.4007 73.5169 22.0255C74.0087 23.168 75.0091 24.1431 76.2631 24.3645C77.5171 24.5876 78.9671 24.2817 79.7851 23.2508C80.6588 22.1928 80.6588 20.7428 80.6166 19.4483C79.9676 20.0736 79.2223 20.6313 78.3199 20.8408C76.3611 21.3833 74.2064 20.7158 72.6989 19.406C71.1779 18.0963 70.2755 16.0767 70.36 14.0707C70.4022 11.801 71.6984 9.61419 73.6571 8.4295ZM76.5724 10.2124C75.7092 10.3612 74.9263 10.8101 74.3619 11.4799C73.0369 13.0398 73.0369 15.5342 74.3754 17.0654C75.1359 17.9712 76.3611 18.4731 77.5458 18.3481C78.1013 18.2836 78.6339 18.0899 79.1011 17.7827C79.5682 17.4754 79.957 17.0631 80.2363 16.5787C81.1658 14.9495 81.0103 12.7339 79.7563 11.3126C79.3614 10.8758 78.8624 10.5459 78.3057 10.3539C77.749 10.1618 77.1527 10.112 76.5724 10.2124ZM92.2657 9.1393C93.9557 7.57943 96.5634 7.05046 98.7316 7.8718C100.788 8.63906 102.1 10.5758 102.761 12.5666C99.7051 13.8206 96.6614 15.0594 93.6042 16.3133C94.0267 17.1076 94.6756 17.8326 95.5477 18.125C96.7746 18.556 98.2398 18.4039 99.2674 17.596C99.6763 17.2885 100.001 16.8862 100.31 16.4942C101.084 17.0096 101.86 17.5115 102.634 18.027C101.535 19.6578 99.6899 20.7986 97.7041 20.9811C95.5071 21.2447 93.1682 20.4099 91.7452 18.7097C89.4062 16.0345 89.6327 11.5492 92.2657 9.1393ZM93.7732 11.7165C93.2949 12.3993 93.0972 13.2358 93.1107 14.0572C95.1556 13.2206 97.1971 12.3841 99.2403 11.5357C98.9023 10.7566 98.0844 10.2817 97.2529 10.1567C95.9144 9.92008 94.5202 10.6299 93.7732 11.7165Z" fill="white"/>
</g>
<path d="M0 2.01392H10.0673V65.4395H0V2.01392Z" fill="white"/>
</g>
</svg>
