<svg width="70" height="80" viewBox="0 0 70 80" fill="none" xmlns="http://www.w3.org/2000/svg">
<g clip-path="url(#clip0_812_11451)">
<g clip-path="url(#clip1_812_11451)">
<path d="M34.9575 79.4242L6.47122 71.5188L0.123047 0.341797H69.8772L63.5224 71.5079L34.9575 79.4242Z" fill="#264DE4"/>
<path d="M58.0819 66.9769L63.5122 6.16211H35V73.3738L58.0819 66.9769Z" fill="#2965F1"/>
<path d="M14.6758 32.5605L15.4583 41.2901H34.9999V32.5605H14.6758Z" fill="#EBEBEB"/>
<path d="M13.1035 14.8926L13.8973 23.6221H35.0004V14.8926H13.1035Z" fill="#EBEBEB"/>
<path d="M34.9991 55.2334L34.9608 55.2436L25.2355 52.6185L24.6137 45.6562H15.8477L17.071 59.363L34.9589 64.3268L34.9991 64.316V55.2334Z" fill="#EBEBEB"/>
<path d="M55.2675 32.5614L56.8438 14.8926H34.969V23.6221H47.2738L46.4791 32.5614H34.969V41.2909H45.722L44.7081 52.6126L34.9688 55.2404V64.3223L52.8708 59.3626L53.0021 57.8877L55.0545 34.9055L55.2675 32.5614Z" fill="white"/>
</g>
</g>
<defs>
<clipPath id="clip0_812_11451">
<rect width="70" height="80" fill="white"/>
</clipPath>
<clipPath id="clip1_812_11451">
<rect width="70" height="80" fill="white"/>
</clipPath>
</defs>
</svg>
