<svg width="70" height="80" viewBox="0 0 70 80" fill="none" xmlns="http://www.w3.org/2000/svg">
<g clip-path="url(#clip0_812_11436)">
<g clip-path="url(#clip1_812_11436)">
<mask id="mask0_812_11436" style="mask-type:luminance" maskUnits="userSpaceOnUse" x="0" y="0" width="70" height="80">
<path d="M70 0H0V80H70V0Z" fill="white"/>
</mask>
<g mask="url(#mask0_812_11436)">
<path d="M69.8772 -0.447266L63.5225 71.4943L34.9575 79.497L6.47122 71.5054L0.123047 -0.447266H69.8772Z" fill="#E44D26"/>
<path d="M35 73.3816L58.082 66.915L63.5122 5.4375H35V73.3816Z" fill="#F16529"/>
<path d="M22.647 23.0864H35.0004V14.2617H13.1035L13.3124 16.6292L15.4588 40.9477H35.0004V32.123H23.4451L22.647 23.0864Z" fill="#EBEBEB"/>
<path d="M24.6157 45.3594H15.8496L17.0729 59.2155L34.9608 64.2334L35.001 64.2224V55.0409L34.9628 55.0512L25.2375 52.3974L24.6157 45.3594Z" fill="#EBEBEB"/>
<path d="M34.969 40.9477H45.722L44.7081 52.3927L34.9688 55.0492V64.2301L52.8708 59.2164L53.0021 57.7254L55.0545 34.4927L55.2675 32.123H34.969V40.9477Z" fill="white"/>
<path d="M34.9707 23.0649V23.0864H56.0637L56.2387 21.103L56.6368 16.6292L56.8455 14.2617H34.9707V23.0649Z" fill="white"/>
</g>
</g>
</g>
<defs>
<clipPath id="clip0_812_11436">
<rect width="70" height="80" fill="white"/>
</clipPath>
<clipPath id="clip1_812_11436">
<rect width="70" height="80" fill="white"/>
</clipPath>
</defs>
</svg>
