<svg width="80" height="80" viewBox="0 0 80 80" fill="none" xmlns="http://www.w3.org/2000/svg">
<path d="M0 0H80V80H0V0Z" fill="#E7E7E7"/>
<path d="M46.6349 34.7331C45.5279 35.0137 44.6139 35.164 43.6795 35.4947C42.9381 35.6851 42.1865 35.8855 41.3232 36.106L41.2623 36.116C40.8357 36.2363 40.7951 36.2463 40.399 35.7954C39.9217 35.2642 39.5764 34.9235 38.9162 34.6028C36.9155 33.6407 34.9858 33.9213 33.1881 35.0738C31.035 36.4467 29.928 38.4811 29.9585 41.0065C29.9889 43.5119 31.7256 45.5662 34.1428 45.907C36.3772 46.1876 38.185 45.446 39.6068 43.8526C39.8201 43.592 40.0131 43.3214 40.2264 43.0208C40.3076 42.9206 40.3787 42.8104 40.46 42.6901H34.3561C33.6959 42.6901 33.5334 42.2892 33.7569 41.7581C34.1631 40.786 34.9248 39.1626 35.3717 38.3508C35.4631 38.1704 35.6866 37.7696 36.0725 37.7696H46.3404C46.7974 36.4267 47.5388 35.0738 48.5341 33.7911C50.8396 30.7947 53.5411 29.2313 57.3903 28.5799C60.62 28.0187 63.6567 28.3294 66.4192 30.1733C68.9176 31.8569 70.4614 34.1418 70.8778 37.1382C71.416 41.3572 70.177 44.7846 67.1504 47.7208C65.1497 49.8153 62.5903 51.1281 59.645 51.7194C59.0763 51.8196 58.5177 51.8697 57.9692 51.9198C57.6747 51.9399 57.3903 51.9699 57.106 52C54.2318 51.9399 51.6013 51.1281 49.3873 49.2541C47.8334 47.9213 46.7568 46.2878 46.2287 44.3937C45.8529 45.1253 45.4162 45.8368 44.8068 46.5083C42.6131 49.4746 39.6373 51.3185 35.8795 51.8096C32.7717 52.2205 29.8975 51.6292 27.3585 49.7552C25.0226 48.0015 23.6921 45.6965 23.3468 42.8204C22.9304 39.4131 23.946 36.2664 26.028 33.6708C28.2827 30.7646 31.2585 28.9207 34.8944 28.2693C37.8701 27.6479 40.7139 28.0789 43.2834 29.8025C44.9592 30.8949 46.1576 32.3881 46.9498 34.2019C47.1427 34.4825 47.0107 34.6429 46.6349 34.7331ZM10.9054 35.2943C10.7785 35.2943 10.747 35.2342 10.81 35.1339L11.4752 34.2921C11.5382 34.2019 11.6966 34.1418 11.8236 34.1418H23.1233C23.2452 34.1418 23.2757 34.232 23.2148 34.3222L22.6765 35.1339C22.6155 35.2342 22.453 35.3243 22.3616 35.3243L10.9054 35.2943ZM6.12655 38.1704C6 38.1704 5.96835 38.1003 6.03165 38.0101L6.69621 37.1683C6.75958 37.0781 6.91782 37.0079 7.04406 37.0079H21.478C21.5999 37.0079 21.6609 37.1082 21.6304 37.1984L21.3765 37.95C21.346 38.0702 21.2241 38.1404 21.0921 38.1404L6.12655 38.1704ZM13.6903 40.8562C13.6273 40.9464 13.6588 41.0366 13.7847 41.0366L20.6859 41.0666C20.7773 41.0666 20.9093 40.9764 20.9093 40.8562L20.9702 40.1046C20.9702 39.9743 20.9093 39.8841 20.7773 39.8841H14.45C14.323 39.8841 14.1971 39.9743 14.1331 40.0745L13.6903 40.8562ZM64.6216 39.0523C64.6012 38.7918 64.5911 38.5713 64.5505 38.3508C63.9817 35.2642 61.0974 33.5105 58.0911 34.2019C55.1458 34.8533 53.2466 36.6973 52.556 39.6336C51.9872 42.0688 53.1857 44.534 55.4607 45.5362C57.2075 46.2878 58.9442 46.1976 60.62 45.3458C63.1184 43.9829 64.4794 42.0688 64.6419 39.383C64.6317 39.2628 64.6317 39.1525 64.6216 39.0523Z" fill="#00AED8"/>
</svg>
