<svg width="91" height="80" viewBox="0 0 91 80" fill="none" xmlns="http://www.w3.org/2000/svg">
<g clip-path="url(#clip0_812_11487)">
<mask id="mask0_812_11487" style="mask-type:luminance" maskUnits="userSpaceOnUse" x="0" y="0" width="91" height="80">
<path d="M90.2857 0H0V80H90.2857V0Z" fill="white"/>
</mask>
<g mask="url(#mask0_812_11487)">
<path d="M74.2271 25.9031C73.2665 25.5751 72.2977 25.2713 71.3217 24.9919C71.4857 24.3252 71.6366 23.6666 71.7706 23.0196C73.9701 12.3947 72.5322 3.83503 67.6208 1.01678C62.9118 -1.68497 55.2107 1.13222 47.433 7.86801C46.6665 8.53304 45.917 9.21723 45.1852 9.91994C44.6953 9.45266 44.1968 8.99445 43.6898 8.54555C35.5384 1.34345 27.368 -1.69199 22.4619 1.13432C17.7571 3.8445 16.364 11.8912 18.3442 21.9606C18.5412 22.9579 18.7637 23.95 19.0113 24.9361C17.8548 25.2631 16.7388 25.6112 15.6708 25.9817C6.1139 29.2975 0.0107422 34.4936 0.0107422 39.8834C0.0107422 45.4501 6.56276 51.0336 16.5167 54.4192C17.3237 54.6926 18.1374 54.9459 18.957 55.1789C18.6908 56.2409 18.4545 57.3101 18.2483 58.3852C16.3605 68.2799 17.8347 76.1364 22.5268 78.8294C27.3729 81.6105 35.5067 78.7522 43.4264 71.8627C44.0686 71.3026 44.6967 70.7267 45.31 70.1354C46.1025 70.8963 46.9162 71.635 47.75 72.3508C55.4219 78.9199 62.9986 81.5726 67.6861 78.8722C72.5276 76.0831 74.1013 67.6431 72.0583 57.3747C71.8974 56.5702 71.7169 55.7697 71.5171 54.974C72.0883 54.8055 72.6489 54.6322 73.1954 54.4519C83.5436 51.0403 90.2765 45.5245 90.2765 39.8834C90.2765 34.474 83.9762 29.2427 74.2271 25.9031ZM71.9828 50.8098C71.4892 50.9722 70.9829 51.1291 70.4667 51.2817C69.3242 47.6827 67.7827 43.8561 65.8959 39.902C67.6963 36.0424 69.1786 32.2645 70.289 28.6891C71.2124 28.955 72.1084 29.2354 72.9722 29.5312C81.3253 32.3929 86.4204 36.6234 86.4204 39.8834C86.4204 43.3557 80.9177 47.8634 71.9828 50.8098ZM68.2756 58.1199C69.179 62.6603 69.3077 66.7655 68.7093 69.975C68.1719 72.8589 67.0909 74.7813 65.7538 75.5515C62.9094 77.1901 56.826 75.0603 50.2651 69.442C49.4895 68.7766 48.7327 68.0897 47.9954 67.3824C50.5391 64.6143 53.081 61.3964 55.5619 57.8224C59.9257 57.4371 64.0483 56.807 67.7869 55.947C67.971 56.6863 68.1346 57.4112 68.2756 58.1199ZM30.7843 75.2684C28.0051 76.2449 25.7915 76.2729 24.4534 75.5052C21.6061 73.8712 20.4224 67.5627 22.037 59.101C22.2289 58.1011 22.4487 57.1067 22.696 56.1189C26.3934 56.9329 30.486 57.5182 34.86 57.8712C37.3578 61.3684 39.9731 64.5827 42.6088 67.3975C42.0486 67.9368 41.4753 68.4624 40.8891 68.9736C37.3867 72.0199 33.8773 74.1813 30.7843 75.2684ZM17.7642 50.7884C13.3627 49.2912 9.72771 47.3456 7.23623 45.2224C4.99722 43.3147 3.86713 41.4203 3.86713 39.8834C3.86713 36.6126 8.76722 32.4406 16.9401 29.6052C17.932 29.2613 18.9701 28.9368 20.0473 28.6322C21.177 32.2884 22.6586 36.1112 24.4467 39.9768C22.6354 43.8996 21.1326 47.7834 19.9919 51.4827C19.2437 51.2695 18.5009 51.0379 17.7642 50.7884ZM22.1287 21.2234C20.4323 12.5964 21.5589 6.08871 24.3941 4.45538C27.4138 2.71573 34.0913 5.19608 41.1296 11.415C41.5886 11.8215 42.0401 12.2362 42.4839 12.6589C39.8613 15.4613 37.27 18.6519 34.7944 22.1284C30.5491 22.5199 26.4854 23.1487 22.7492 23.9912C22.5191 23.074 22.3121 22.1509 22.1287 21.2234ZM61.0653 30.7912C60.1828 29.2743 59.2676 27.7765 58.3203 26.2989C61.2003 26.6613 63.9598 27.1424 66.551 27.7305C65.7732 30.2119 64.8036 32.8059 63.6622 35.4655C62.8279 33.8904 61.9621 32.3319 61.0653 30.7912ZM45.187 15.4013C46.9655 17.3189 48.7468 19.4596 50.4989 21.7824C46.9447 21.6154 43.3845 21.6147 39.8303 21.7803C41.5841 19.4789 43.3806 17.341 45.187 15.4013ZM29.2068 30.8175C28.3212 32.3458 27.4715 33.8946 26.6585 35.4624C25.5358 32.8122 24.575 30.2063 23.7905 27.6898C26.3659 27.1164 29.1123 26.6477 31.974 26.2919C31.0161 27.7785 30.0935 29.2878 29.2068 30.8175ZM32.0561 53.748C29.0996 53.4196 26.3119 52.975 23.7372 52.4171C24.5341 49.8557 25.5161 47.1943 26.6631 44.4873C27.4793 46.0563 28.3325 47.606 29.2219 49.135C30.1366 50.707 31.0837 52.2466 32.0561 53.748ZM45.2935 64.6357C43.4656 62.6736 41.6426 60.5027 39.8624 58.168C41.5908 58.2354 43.3527 58.2698 45.1436 58.2698C46.9835 58.2698 48.8022 58.2287 50.5923 58.1494C48.8346 60.5263 47.06 62.7003 45.2935 64.6357ZM63.6985 44.3491C64.9051 47.0859 65.922 49.7333 66.7295 52.2508C64.1124 52.8452 61.2867 53.3238 58.3094 53.6792C59.2634 52.1742 60.1873 50.6504 61.0804 49.1087C61.9885 47.5417 62.8614 45.9547 63.6985 44.3491ZM57.7403 47.1915C56.3729 49.5552 54.9287 51.8739 53.41 54.1441C50.6588 54.338 47.9016 54.4344 45.1436 54.4329C42.3344 54.4329 39.6021 54.3459 36.971 54.1761C35.4126 51.9111 33.9409 49.5883 32.5589 47.2126C31.1835 44.8494 29.8991 42.4352 28.7078 39.975C29.8961 37.5143 31.1769 35.0989 32.5477 32.734C33.9179 30.3685 35.3775 28.0559 36.9241 25.8006C39.6085 25.5985 42.3612 25.4933 45.1433 25.4933C47.938 25.4933 50.6946 25.5996 53.3782 25.8031C54.9093 28.055 56.3599 30.3599 57.7276 32.7136C59.1028 35.0733 60.4006 37.4769 61.6189 39.9206C60.4131 42.3893 59.1195 44.8145 57.7403 47.1915ZM65.6949 4.34099C68.7174 6.07573 69.893 13.0712 67.9939 22.2448C67.8726 22.8301 67.7365 23.4263 67.5884 24.0308C63.8431 23.1705 59.7765 22.5308 55.5189 22.1333C53.0387 18.6185 50.4686 15.4231 47.8886 12.6568C48.5648 12.0082 49.257 11.3764 49.9647 10.762C56.6289 4.99117 62.8572 2.71257 65.6949 4.34099ZM45.1436 31.8624C49.5952 31.8624 53.2041 35.4536 53.2041 39.8834C53.2041 44.3133 49.5952 47.9045 45.1436 47.9045C40.692 47.9045 37.0832 44.3133 37.0832 39.8834C37.0832 35.4536 40.692 31.8624 45.1436 31.8624Z" fill="#00D8FF"/>
</g>
</g>
<defs>
<clipPath id="clip0_812_11487">
<rect width="91" height="80" fill="white"/>
</clipPath>
</defs>
</svg>
