<svg width="128" height="80" viewBox="0 0 128 80" fill="none" xmlns="http://www.w3.org/2000/svg">
<g clip-path="url(#clip0_812_11377)">
<mask id="mask0_812_11377" style="mask-type:luminance" maskUnits="userSpaceOnUse" x="1" y="2" width="126" height="76">
<path d="M1.7998 40.0001C1.7998 60.9395 29.6484 77.9146 63.9999 77.9146C98.3515 77.9146 126.2 60.9395 126.2 40.0001C126.2 19.0609 98.3515 2.08559 63.9999 2.08559C29.6484 2.08559 1.7998 19.0609 1.7998 40.0001Z" fill="white"/>
</mask>
<g mask="url(#mask0_812_11377)">
<path d="M1.7998 40.0001C1.7998 60.9395 29.6484 77.9146 63.9999 77.9146C98.3515 77.9146 126.2 60.9395 126.2 40.0001C126.2 19.0609 98.3515 2.08559 63.9999 2.08559C29.6484 2.08559 1.7998 19.0609 1.7998 40.0001Z" fill="url(#paint0_radial_812_11377)"/>
</g>
<mask id="mask1_812_11377" style="mask-type:luminance" maskUnits="userSpaceOnUse" x="-1" y="-3" width="130" height="86">
<path d="M-0.791992 -2.23161H128.792V82.2319H-0.791992V-2.23161Z" fill="white"/>
</mask>
<g mask="url(#mask1_812_11377)">
<path d="M63.9999 75.0996C97.0097 75.0996 123.77 59.385 123.77 40.0001C123.77 20.6154 97.0097 4.9005 63.9999 4.9005C30.9901 4.9005 4.22949 20.6154 4.22949 40.0001C4.22949 59.385 30.9901 75.0996 63.9999 75.0996Z" fill="#777BB3"/>
</g>
<mask id="mask2_812_11377" style="mask-type:luminance" maskUnits="userSpaceOnUse" x="-1" y="-3" width="130" height="86">
<path d="M-0.791992 -2.23161H128.792V82.2319H-0.791992V-2.23161Z" fill="white"/>
</mask>
<g mask="url(#mask2_812_11377)">
<path d="M35.5936 44.3519C38.3078 44.3519 40.3341 43.7719 41.6163 42.6285C42.8847 41.4969 43.7607 39.5362 44.2199 36.8013C44.648 34.245 44.4849 32.46 43.7353 31.4968C42.9688 30.5129 41.3117 30.014 38.81 30.014H34.4723L32.0676 44.3519H35.5936ZM21.4062 62.0137C21.2048 62.0137 21.0136 61.9094 20.8856 61.729C20.7574 61.5489 20.7054 61.3116 20.7439 61.0825L27.1169 23.0867C27.1785 22.7194 27.4563 22.454 27.7794 22.454H41.5148C45.8316 22.454 49.0446 23.8122 51.0642 26.4913C53.0945 29.1845 53.7215 32.9491 52.9276 37.6804C52.6045 39.6079 52.0489 41.3981 51.2761 43.0008C50.5024 44.6053 49.4799 46.09 48.2365 47.4143C46.7481 49.0284 45.0635 50.1989 43.234 50.8877C41.4336 51.5673 39.1213 51.9119 36.3616 51.9119H30.7999L29.2116 61.3807C29.1499 61.7483 28.8723 62.0137 28.5492 62.0137H21.4062Z" fill="black"/>
<path d="M35.0288 30.7957H38.8101C41.8295 30.7957 42.8783 31.5635 43.2346 32.021C43.8259 32.7806 43.9374 34.3823 43.5575 36.6526C43.1305 39.1944 42.339 40.9965 41.2047 42.0085C40.0434 43.0445 38.1555 43.5695 35.5937 43.5695H32.8864L35.0288 30.7957ZM41.515 21.6716H27.7793C27.1332 21.6716 26.5777 22.2023 26.4545 22.9372L20.0815 60.933C20.0045 61.3916 20.1085 61.8658 20.3647 62.2263C20.6212 62.5869 21.0032 62.7954 21.4063 62.7954H28.5492C29.1955 62.7954 29.751 62.2646 29.8743 61.5298L31.3564 52.6937H36.3618C39.1923 52.6937 41.5752 52.336 43.4436 51.6308C45.3651 50.9074 47.1329 49.6809 48.6976 47.9854C49.9917 46.6058 51.0576 45.0573 51.8652 43.3824C52.6731 41.7069 53.2535 39.8385 53.5903 37.8291C54.4261 32.8489 53.7471 28.8609 51.5725 25.9766C49.4191 23.12 46.0351 21.6716 41.515 21.6716ZM31.2488 45.1337H35.5937C38.4736 45.1337 40.6187 44.5051 42.0281 43.2478C43.4378 41.9903 44.3885 39.8915 44.8826 36.9504C45.3552 34.1266 45.1399 32.1338 44.2367 30.973C43.3323 29.8121 41.5237 29.2316 38.8101 29.2316H33.9161L31.2488 45.1337ZM41.515 23.2357C45.647 23.2357 48.6614 24.4922 50.5561 27.0056C52.4506 29.5189 53.0211 33.027 52.2652 37.5309C51.9541 39.3862 51.4279 41.0825 50.687 42.6193C49.9453 44.1571 48.9768 45.5633 47.78 46.8383C46.3536 48.385 44.7692 49.4872 43.0256 50.1436C41.2821 50.8019 39.0614 51.1295 36.3618 51.1295H30.2434L28.5492 61.2313H21.4063L27.7793 23.2357H41.515Z" fill="white"/>
<path d="M69.3052 51.9116C69.1036 51.9116 68.9126 51.8073 68.7846 51.6269C68.6561 51.4468 68.6041 51.2098 68.6426 50.9804L71.4617 34.1688C71.7299 32.57 71.6638 31.4224 71.2757 30.9376C71.0381 30.6411 70.3245 30.144 68.2145 30.144H63.1072L59.5628 51.2787C59.5011 51.6462 59.2233 51.9116 58.9002 51.9116H51.8136C51.6121 51.9116 51.4211 51.8073 51.2928 51.6269C51.1646 51.4468 51.1126 51.2096 51.1511 50.9804L57.5241 12.9846C57.5857 12.6173 57.8636 12.3519 58.1866 12.3519H65.2732C65.4748 12.3519 65.6658 12.4562 65.794 12.6363C65.9223 12.8167 65.9742 13.0537 65.9358 13.2831L64.3979 22.4537H69.8921C74.0777 22.4537 76.9159 23.3087 78.569 25.0679C80.2541 26.8624 80.7798 29.7319 80.1319 33.5974L77.1668 51.2787C77.1051 51.6462 76.8275 51.9116 76.5042 51.9116H69.3052Z" fill="black"/>
<path d="M65.2734 11.57H58.1868C57.5404 11.57 56.985 12.1008 56.8617 12.8357L50.4887 50.8315C50.4118 51.29 50.5157 51.7642 50.7722 52.1248C51.0286 52.4853 51.4106 52.6938 51.8138 52.6938H58.9004C59.5465 52.6938 60.1022 52.1631 60.2255 51.4282L63.6637 30.9262H68.2146C70.3211 30.9262 70.7631 31.4476 70.7809 31.47C70.9087 31.6293 71.0767 32.3671 70.7993 34.0198L67.9802 50.8315C67.9033 51.29 68.0072 51.7642 68.2637 52.1248C68.5202 52.4853 68.9022 52.6938 69.3053 52.6938H76.5044C77.1505 52.6938 77.7062 52.1631 77.8295 51.4282L80.7944 33.7469C81.4902 29.5965 80.8949 26.483 79.0259 24.4924C77.2423 22.5943 74.2547 21.6717 69.8923 21.6717H65.2165L66.5985 13.4326C66.6752 12.9741 66.5715 12.4996 66.315 12.1394C66.0585 11.7788 65.6765 11.57 65.2734 11.57ZM65.2734 13.1342L63.5791 23.2359H69.8923C73.8646 23.2359 76.6045 24.0393 78.1125 25.6441C79.6205 27.25 80.0722 29.8519 79.4695 33.4487L76.5044 51.1297H69.3053L72.1244 34.3183C72.4452 32.4059 72.3273 31.1014 71.7703 30.4059C71.2131 29.7104 70.0277 29.3621 68.2146 29.3621H62.5508L58.9004 51.1297H51.8138L58.1868 13.1342H65.2734Z" fill="white"/>
<path d="M91.3455 44.3519C94.0598 44.3519 96.0861 43.7719 97.3682 42.6285C98.6366 41.4971 99.5126 39.5365 99.972 36.8013C100.4 34.245 100.237 32.46 99.4872 31.4968C98.7207 30.5129 97.0636 30.014 94.5619 30.014H90.2242L87.8195 44.3519H91.3455ZM77.1583 62.0137C76.957 62.0137 76.7658 61.9094 76.6377 61.729C76.5095 61.5489 76.4573 61.3116 76.4958 61.0825L82.8688 23.0867C82.9306 22.7194 83.2083 22.454 83.5315 22.454H97.2667C101.584 22.454 104.797 23.8122 106.816 26.4913C108.847 29.1842 109.473 32.9488 108.68 37.6804C108.356 39.6079 107.801 41.3981 107.028 43.0008C106.254 44.6053 105.232 46.09 103.988 47.4143C102.5 49.0284 100.815 50.1989 98.986 50.8877C97.1855 51.5673 94.8733 51.9119 92.1135 51.9119H86.5516L84.9639 61.3807C84.9021 61.7483 84.6245 62.0137 84.3012 62.0137H77.1583Z" fill="black"/>
<path d="M90.7805 30.7957H94.5618C97.5812 30.7957 98.63 31.5635 98.9864 32.021C99.5778 32.7806 99.6894 34.3823 99.3092 36.6524C98.8822 39.1944 98.0905 40.9965 96.9564 42.0085C95.7951 43.0445 93.9072 43.5695 91.3454 43.5695H88.6383L90.7805 30.7957ZM97.2667 21.6716H83.5313C82.8852 21.6716 82.3297 22.2023 82.2064 22.9372L75.8334 60.933C75.7565 61.3916 75.8604 61.8658 76.1167 62.2263C76.3731 62.5869 76.7551 62.7954 77.1583 62.7954H84.3011C84.9472 62.7954 85.5029 62.2646 85.6262 61.5298L87.1081 52.6937H92.1135C94.9441 52.6937 97.327 52.336 99.1954 51.6308C101.117 50.9074 102.885 49.6806 104.45 47.9848C105.744 46.6055 106.809 45.0573 107.617 43.3824C108.425 41.7069 109.005 39.8385 109.342 37.8291C110.178 32.8487 109.499 28.8606 107.324 25.9763C105.171 23.12 101.787 21.6716 97.2667 21.6716ZM87.0008 45.1337H91.3454C94.2253 45.1337 96.3704 44.5051 97.7798 43.2478C99.1897 41.9903 100.14 39.8915 100.634 36.9504C101.107 34.1266 100.892 32.1338 99.9884 30.973C99.084 29.8121 97.2755 29.2316 94.5618 29.2316H89.6678L87.0008 45.1337ZM97.2667 23.2357C101.399 23.2357 104.413 24.4922 106.308 27.0056C108.203 29.5189 108.773 33.027 108.017 37.5309C107.706 39.3862 107.18 41.0825 106.439 42.6193C105.697 44.1571 104.729 45.5633 103.532 46.8383C102.105 48.385 100.521 49.4872 98.7774 50.1436C97.0338 50.8019 94.8131 51.1295 92.1135 51.1295H85.9952L84.3011 61.2313H77.1583L83.5313 23.2357H97.2667Z" fill="white"/>
</g>
</g>
<defs>
<radialGradient id="paint0_radial_812_11377" cx="0" cy="0" r="1" gradientUnits="userSpaceOnUse" gradientTransform="translate(39.1451 15.4152) scale(81.6777 94.6455)">
<stop stop-color="#AEB2D5"/>
<stop offset="0.3" stop-color="#AEB2D5"/>
<stop offset="0.75" stop-color="#484C89"/>
<stop offset="1" stop-color="#484C89"/>
</radialGradient>
<clipPath id="clip0_812_11377">
<rect width="128" height="80" fill="white"/>
</clipPath>
</defs>
</svg>
