<svg width="90" height="80" viewBox="0 0 90 80" fill="none" xmlns="http://www.w3.org/2000/svg">
<g clip-path="url(#clip0_812_11471)">
<mask id="mask0_812_11471" style="mask-type:luminance" maskUnits="userSpaceOnUse" x="0" y="0" width="90" height="80">
<path d="M89.8765 0H0V80H89.8765V0Z" fill="white"/>
</mask>
<g mask="url(#mask0_812_11471)">
<path d="M73.8918 25.9031C72.9355 25.5751 71.9711 25.2713 70.9995 24.9919C71.1627 24.3252 71.313 23.6666 71.4464 23.0196C73.6359 12.3947 72.2045 3.83503 67.3154 1.01678C62.6278 -1.68497 54.9615 1.13222 47.2191 7.86801C46.4561 8.53304 45.7099 9.21723 44.9815 9.91994C44.4938 9.45266 43.9975 8.99445 43.4929 8.54555C35.3784 1.34345 27.245 -1.69199 22.3611 1.13432C17.6777 3.8445 16.2909 11.8912 18.2621 21.9606C18.4582 22.9579 18.6796 23.95 18.9262 24.9361C17.7749 25.2631 16.664 25.6112 15.6008 25.9817C6.08722 29.2975 0.0117188 34.4936 0.0117188 39.8834C0.0117188 45.4501 6.53405 51.0336 16.4428 54.4192C17.2462 54.6926 18.0562 54.9459 18.8721 55.1789C18.6071 56.2409 18.3719 57.3101 18.1666 58.3852C16.2874 68.2799 17.7549 76.1364 22.4257 78.8294C27.2499 81.6105 35.3468 78.7522 43.2307 71.8627C43.87 71.3026 44.4952 70.7267 45.1057 70.1354C45.8946 70.8963 46.7046 71.635 47.5346 72.3508C55.1718 78.9199 62.7141 81.5726 67.3803 78.8722C72.2 76.0831 73.7665 67.6431 71.7328 57.3747C71.5725 56.5702 71.3929 55.7697 71.194 54.974C71.7626 54.8055 72.3207 54.6322 72.8648 54.4519C83.166 51.0403 89.8684 45.5245 89.8684 39.8834C89.8684 34.474 83.5966 29.2427 73.8918 25.9031ZM71.6576 50.8098C71.1662 50.9722 70.6622 51.1291 70.1483 51.2817C69.0111 47.6827 67.4765 43.8561 65.5983 39.902C67.3905 36.0424 68.8661 32.2645 69.9714 28.6891C70.8907 28.955 71.7826 29.2354 72.6426 29.5312C80.9578 32.3929 86.0298 36.6234 86.0298 39.8834C86.0298 43.3557 80.5521 47.8634 71.6576 50.8098ZM67.9672 58.1199C68.8665 62.6603 68.9946 66.7655 68.3989 69.975C67.864 72.8589 66.7878 74.7813 65.4568 75.5515C62.6253 77.1901 56.5695 75.0603 50.0383 69.442C49.2663 68.7766 48.5128 68.0897 47.7789 67.3824C50.3111 64.6143 52.8415 61.3964 55.3111 57.8224C59.6551 57.4371 63.759 56.807 67.4807 55.947C67.6639 56.6863 67.8268 57.4112 67.9672 58.1199ZM30.6458 75.2684C27.8792 76.2449 25.6756 76.2729 24.3436 75.5052C21.5092 73.8712 20.3309 67.5627 21.9381 59.101C22.1292 58.1011 22.348 57.1067 22.5942 56.1189C26.2748 56.9329 30.3489 57.5182 34.7031 57.8712C37.1896 61.3684 39.7929 64.5827 42.4167 67.3975C41.8591 67.9368 41.2883 68.4624 40.7048 68.9736C37.2183 72.0199 33.7248 74.1813 30.6458 75.2684ZM17.6847 50.7884C13.3031 49.2912 9.68465 47.3456 7.20446 45.2224C4.9756 43.3147 3.85063 41.4203 3.85063 39.8834C3.85063 36.6126 8.72851 32.4406 16.8644 29.6052C17.8518 29.2613 18.8851 28.9368 19.9574 28.6322C21.082 32.2884 22.557 36.1112 24.3369 39.9768C22.5338 43.8996 21.0378 47.7834 19.9023 51.4827C19.1575 51.2695 18.4181 51.0379 17.6847 50.7884ZM22.0294 21.2234C20.3407 12.5964 21.4622 6.08871 24.2846 4.45538C27.2906 2.71573 33.9379 5.19608 40.9442 11.415C41.4011 11.8215 41.8506 12.2362 42.2924 12.6589C39.6817 15.4613 37.1022 18.6519 34.6378 22.1284C30.4117 22.5199 26.3664 23.1487 22.6472 23.9912C22.418 23.074 22.212 22.1509 22.0294 21.2234ZM60.7896 30.7912C59.9111 29.2743 59 27.7765 58.057 26.2989C60.924 26.6613 63.6709 27.1424 66.2505 27.7305C65.4761 30.2119 64.5109 32.8059 63.3747 35.4655C62.5442 33.8904 61.6823 32.3319 60.7896 30.7912ZM44.9832 15.4013C46.7537 17.3189 48.5269 19.4596 50.2711 21.7824C46.733 21.6154 43.189 21.6147 39.6508 21.7803C41.3967 19.4789 43.185 17.341 44.9832 15.4013ZM29.0754 30.8175C28.1938 32.3458 27.348 33.8946 26.5387 35.4624C25.4211 32.8122 24.4647 30.2063 23.6837 27.6898C26.2474 27.1164 28.9814 26.6477 31.8301 26.2919C30.8766 27.7785 29.9581 29.2878 29.0754 30.8175ZM31.9119 53.748C28.9687 53.4196 26.1937 52.975 23.6307 52.4171C24.4239 49.8557 25.4015 47.1943 26.5433 44.4873C27.3558 46.0563 28.2051 47.606 29.0905 49.135C30.001 50.707 30.9438 52.2466 31.9119 53.748ZM45.0892 64.6357C43.2696 62.6736 41.4549 60.5027 39.6827 58.168C41.4033 58.2354 43.1573 58.2698 44.94 58.2698C46.7716 58.2698 48.582 58.2287 50.3641 58.1494C48.6143 60.5263 46.8477 62.7003 45.0892 64.6357ZM63.4108 44.3491C64.612 47.0859 65.6243 49.7333 66.4281 52.2508C63.8229 52.8452 61.01 53.3238 58.0461 53.6792C58.9959 52.1742 59.9156 50.6504 60.8047 49.1087C61.7086 47.5417 62.5776 45.9547 63.4108 44.3491ZM57.4796 47.1915C56.1185 49.5552 54.6808 51.8739 53.1689 54.1441C50.4303 54.338 47.6856 54.4344 44.94 54.4329C42.1436 54.4329 39.4237 54.3459 36.8045 54.1761C35.2532 51.9111 33.7881 49.5883 32.4124 47.2126C31.0432 44.8494 29.7646 42.4352 28.5788 39.975C29.7616 37.5143 31.0367 35.0989 32.4012 32.734C33.7652 30.3685 35.2182 28.0559 36.7578 25.8006C39.43 25.5985 42.1703 25.4933 44.9397 25.4933C47.7218 25.4933 50.4659 25.5996 53.1374 25.8031C54.6614 28.055 56.1055 30.3599 57.467 32.7136C58.836 35.0733 60.1279 37.4769 61.3406 39.9206C60.1404 42.3893 58.8526 44.8145 57.4796 47.1915ZM65.3982 4.34099C68.407 6.07573 69.5773 13.0712 67.6868 22.2448C67.566 22.8301 67.4305 23.4263 67.2831 24.0308C63.5548 23.1705 59.5066 22.5308 55.2683 22.1333C52.7993 18.6185 50.2409 15.4231 47.6726 12.6568C48.3457 12.0082 49.0348 11.3764 49.7393 10.762C56.3732 4.99117 62.5734 2.71257 65.3982 4.34099ZM44.94 31.8624C49.3714 31.8624 52.964 35.4536 52.964 39.8834C52.964 44.3133 49.3714 47.9045 44.94 47.9045C40.5086 47.9045 36.9161 44.3133 36.9161 39.8834C36.9161 35.4536 40.5086 31.8624 44.94 31.8624Z" fill="#00D8FF"/>
</g>
</g>
<defs>
<clipPath id="clip0_812_11471">
<rect width="90" height="80" fill="white"/>
</clipPath>
</defs>
</svg>
