<svg width="80" height="80" viewBox="0 0 80 80" fill="none" xmlns="http://www.w3.org/2000/svg">
<g clip-path="url(#clip0_812_11365)">
<g clip-path="url(#clip1_812_11365)">
<g clip-path="url(#clip2_812_11365)">
<path d="M39.6629 0.0234375C19.4079 0.0234375 20.6725 8.84383 20.6725 8.84383L20.695 17.982H40.0241V20.7256H13.0179C13.0179 20.7256 0.0566406 19.2495 0.0566406 39.7718C0.0566406 60.2948 11.3695 59.567 11.3695 59.567H18.121V50.0435C18.121 50.0435 17.757 38.6835 29.2533 38.6835H48.4242C48.4242 38.6835 59.195 38.8583 59.195 28.2305V10.6581C59.195 10.6581 60.8309 0.0234375 39.6629 0.0234375ZM29.0049 6.16869C29.4616 6.16828 29.914 6.25832 30.3361 6.43365C30.7581 6.60898 31.1416 6.86616 31.4646 7.19049C31.7876 7.51481 32.0437 7.8999 32.2183 8.32373C32.3929 8.74755 32.4826 9.2018 32.4822 9.66046C32.4826 10.1191 32.3929 10.5734 32.2183 10.9972C32.0437 11.421 31.7876 11.8061 31.4646 12.1304C31.1416 12.4548 30.7581 12.7119 30.3361 12.8873C29.914 13.0626 29.4616 13.1526 29.0049 13.1522C28.5481 13.1526 28.0958 13.0626 27.6737 12.8873C27.2516 12.7119 26.8681 12.4548 26.5452 12.1304C26.2222 11.8061 25.9661 11.421 25.7915 10.9972C25.6169 10.5734 25.5272 10.1191 25.5276 9.66046C25.5272 9.2018 25.6169 8.74755 25.7915 8.32373C25.9661 7.8999 26.2222 7.51481 26.5452 7.19049C26.8681 6.86616 27.2516 6.60898 27.6737 6.43365C28.0958 6.25832 28.5481 6.16828 29.0049 6.16869Z" fill="url(#paint0_linear_812_11365)"/>
<path d="M40.2356 79.7259C60.4906 79.7259 59.2259 70.9055 59.2259 70.9055L59.2034 61.7676H39.8741V59.0241H66.8803C66.8803 59.0241 79.8415 60.5002 79.8415 39.9772C79.8415 19.4545 68.5287 20.1824 68.5287 20.1824H61.7772V29.7055C61.7772 29.7055 62.1411 41.0655 50.6449 41.0655H31.4739C31.4739 41.0655 20.7031 40.8908 20.7031 51.5189V69.0916C20.7031 69.0916 19.068 79.7259 40.2356 79.7259ZM50.8936 73.5813C50.4368 73.5817 49.9845 73.4917 49.5624 73.3163C49.1403 73.141 48.7568 72.8838 48.4339 72.5595C48.1109 72.2352 47.8548 71.8501 47.6802 71.4262C47.5056 71.0024 47.4159 70.5482 47.4163 70.0895C47.4158 69.6308 47.5055 69.1766 47.6801 68.7527C47.8547 68.3288 48.1108 67.9437 48.4337 67.6193C48.7567 67.295 49.1402 67.0378 49.5623 66.8624C49.9844 66.6871 50.4368 66.597 50.8936 66.5974C51.3503 66.597 51.8027 66.6871 52.2248 66.8624C52.6468 67.0377 53.0303 67.2949 53.3533 67.6192C53.6763 67.9436 53.9324 68.3287 54.107 68.7525C54.2816 69.1763 54.3713 69.6305 54.3709 70.0892C54.3713 70.5479 54.2816 71.0021 54.107 71.4259C53.9324 71.8498 53.6763 72.2349 53.3533 72.5592C53.0303 72.8835 52.6468 73.1407 52.2248 73.316C51.8027 73.4913 51.3503 73.5817 50.8936 73.5813Z" fill="url(#paint1_linear_812_11365)"/>
</g>
</g>
</g>
<defs>
<linearGradient id="paint0_linear_812_11365" x1="7.72418" y1="7.19227" x2="47.4272" y2="46.336" gradientUnits="userSpaceOnUse">
<stop stop-color="#387EB8"/>
<stop offset="1" stop-color="#366994"/>
</linearGradient>
<linearGradient id="paint1_linear_812_11365" x1="31.9914" y1="32.4333" x2="74.6197" y2="72.564" gradientUnits="userSpaceOnUse">
<stop stop-color="#FFE052"/>
<stop offset="1" stop-color="#FFC331"/>
</linearGradient>
<clipPath id="clip0_812_11365">
<rect width="80" height="80" fill="white"/>
</clipPath>
<clipPath id="clip1_812_11365">
<rect width="80" height="80" fill="white"/>
</clipPath>
<clipPath id="clip2_812_11365">
<rect width="80" height="80" fill="white"/>
</clipPath>
</defs>
</svg>
