<svg width="80" height="80" viewBox="0 0 80 80" fill="none" xmlns="http://www.w3.org/2000/svg">
<g clip-path="url(#clip0_812_11462)">
<g clip-path="url(#clip1_812_11462)">
<path d="M0 0H80V80H0V0Z" fill="#F7DF1E"/>
<path d="M21.0355 66.854L27.1573 63.149C28.3386 65.243 29.413 67.0149 31.9902 67.0149C34.4605 67.0149 36.0183 66.0487 36.0183 62.2899V36.728H43.5361V62.3962C43.5361 70.1827 38.9717 73.7271 32.3123 73.7271C26.2983 73.7271 22.8076 70.6131 21.0355 66.854Z" fill="black"/>
<path d="M47.6195 66.0482L53.7407 62.5041C55.3523 65.1357 57.4466 67.0688 61.1516 67.0688C64.2669 67.0688 66.2532 65.5113 66.2532 63.3632C66.2532 60.7857 64.2126 59.8724 60.7757 58.3694L58.8966 57.5632C53.4726 55.2547 49.8748 52.3546 49.8748 46.2328C49.8748 40.594 54.1707 36.2979 60.8835 36.2979C65.6629 36.2979 69.0998 37.9628 71.5698 42.3125L65.716 46.0718C64.4269 43.7627 63.0313 42.8499 60.8832 42.8499C58.6813 42.8499 57.2851 44.2462 57.2851 46.0718C57.2851 48.3272 58.6813 49.2407 61.9032 50.6369L63.7826 51.4422C70.1732 54.1812 73.771 56.9735 73.771 63.256C73.771 70.0229 68.4548 73.7278 61.3126 73.7278C54.3316 73.7278 49.8211 70.3982 47.6195 66.0482Z" fill="black"/>
</g>
</g>
<defs>
<clipPath id="clip0_812_11462">
<rect width="80" height="80" fill="white"/>
</clipPath>
<clipPath id="clip1_812_11462">
<rect width="80" height="80" fill="white"/>
</clipPath>
</defs>
</svg>
