<svg width="80" height="80" viewBox="0 0 80 80" fill="none" xmlns="http://www.w3.org/2000/svg">
<g clip-path="url(#clip0_812_11480)">
<g clip-path="url(#clip1_812_11480)">
<path d="M55.4316 55.8714C58.3837 55.5494 60.6234 52.8687 60.5216 49.6513C60.42 46.4343 57.8747 43.8605 54.8206 43.8605H54.6172C51.4609 43.9678 49.0178 46.7559 49.1197 50.0802C49.2216 51.6889 49.8322 53.0829 50.7484 54.0481C47.2872 61.2332 41.9934 66.4878 34.0528 70.8846C28.6572 73.8873 23.0581 74.9597 17.4591 74.2092C12.8778 73.5657 9.31468 71.4211 7.07468 67.8819C3.81718 62.6273 3.51187 56.9435 6.26062 51.26C8.195 47.1848 11.2487 44.1821 13.1831 42.6808C12.7759 41.2867 12.165 38.9276 11.8597 37.2119C-2.90188 48.4719 -1.37469 63.6997 3.10468 70.8846C6.46406 76.2468 13.285 79.5711 20.8184 79.5711C22.8544 79.5711 24.8903 79.3565 26.9266 78.8206C39.9575 76.1395 49.8325 67.9892 55.4316 55.8714ZM73.3491 42.5738C65.6119 33.0295 54.21 27.7749 41.1791 27.7749H39.5503C38.6341 25.8446 36.6997 24.5576 34.5619 24.5576H34.3581C31.2025 24.6649 28.7594 27.4529 28.8609 30.7776C28.9628 33.9946 31.5078 36.5684 34.5619 36.5684H34.7653C37.005 36.4611 38.9394 34.9597 39.7537 32.9221H41.5862C49.3234 32.9221 56.6531 35.2813 63.2706 39.8927C68.3606 43.4316 72.0256 48.043 74.0615 53.6192C75.7922 58.1232 75.6903 62.52 73.8578 66.2735C71.0075 71.957 66.2228 75.067 59.9109 75.067C55.8387 75.067 51.9703 73.78 49.9341 72.8148C48.8144 73.8873 46.7781 75.6029 45.3528 76.6757C49.7306 78.8202 54.21 80 58.4856 80C68.2587 80 75.4869 74.3162 78.2356 68.6327C81.1878 62.4127 80.984 51.6889 73.3491 42.5738ZM21.6328 57.694C21.7347 60.9113 24.2797 63.4848 27.3337 63.4848H27.5375C30.6934 63.3778 33.1366 60.5894 33.0347 57.2651C32.9331 54.0477 30.3878 51.4743 27.3337 51.4743H27.1303C26.9266 51.4743 26.6209 51.4743 26.4178 51.5813C22.2437 44.2891 20.5131 36.3538 21.1241 27.7745C21.5309 21.3402 23.5672 15.7637 27.1303 11.1523C30.0825 7.18451 35.7834 5.25424 39.6522 5.14726C50.4431 4.93264 55.0241 19.088 55.3297 24.7718C56.6531 25.0934 58.8928 25.8443 60.42 26.3805C59.1981 9.00812 49.0178 0 39.245 0C30.0825 0 21.6328 6.97055 18.2731 17.2654C13.5903 30.9919 16.6444 44.1821 22.3453 54.5843C21.8366 55.3348 21.5309 56.5143 21.6328 57.694Z" fill="#764ABC"/>
</g>
</g>
<defs>
<clipPath id="clip0_812_11480">
<rect width="80" height="80" fill="white"/>
</clipPath>
<clipPath id="clip1_812_11480">
<rect width="80" height="80" fill="white"/>
</clipPath>
</defs>
</svg>
