<svg width="60" height="80" viewBox="0 0 60 80" fill="none" xmlns="http://www.w3.org/2000/svg">
<g clip-path="url(#clip0_812_11505)">
<mask id="mask0_812_11505" style="mask-type:luminance" maskUnits="userSpaceOnUse" x="0" y="0" width="60" height="80">
<path d="M59.2593 0H0V80H59.2593V0Z" fill="white"/>
</mask>
<g mask="url(#mask0_812_11505)">
<path d="M19.1102 61.8433C19.1102 61.8433 16.0556 63.6178 21.2842 64.2183C27.6186 64.9401 30.8558 64.8368 37.8364 63.5168C37.8364 63.5168 39.6718 64.6664 42.2346 65.6622C26.5863 72.3621 6.81905 65.274 19.1102 61.8433Z" fill="#5382A1"/>
<path d="M17.1978 53.1001C17.1978 53.1001 13.7717 55.6337 19.0042 56.1743C25.7707 56.8717 31.1144 56.9288 40.3611 55.15C40.3611 55.15 41.64 56.4453 43.6511 57.1537C24.7311 62.6807 3.65776 57.5896 17.1978 53.1001Z" fill="#5382A1"/>
<path d="M33.3188 38.2695C37.1747 42.7042 32.3058 46.695 32.3058 46.695C32.3058 46.695 42.0962 41.646 37.5999 35.3232C33.4005 29.4272 30.18 26.4973 47.614 16.3965C47.614 16.3965 20.2484 23.2244 33.3188 38.2695Z" fill="#E76F00"/>
<path d="M54.0164 68.3102C54.0164 68.3102 56.2769 70.1708 51.5267 71.6103C42.4944 74.3439 13.9326 75.1694 5.9982 71.7192C3.1461 70.4799 8.4948 68.7597 10.1772 68.3985C11.9318 68.0184 12.9346 68.0894 12.9346 68.0894C9.76266 65.857 -7.5675 72.4725 4.13183 74.3668C36.0373 79.5359 62.2922 72.0394 54.0164 68.3102Z" fill="#5382A1"/>
<path d="M20.5793 44.0418C20.5793 44.0418 6.05124 47.4892 15.4347 48.7408C19.3966 49.2707 27.2947 49.1509 34.6516 48.535C40.6641 48.0286 46.7014 46.9512 46.7014 46.9512C46.7014 46.9512 44.5813 47.8582 43.0475 48.9045C28.2943 52.7808 -0.206342 50.9775 7.99862 47.0124C14.9376 43.6617 20.5793 44.0418 20.5793 44.0418Z" fill="#5382A1"/>
<path d="M46.6412 58.5951C61.6388 50.8096 54.7045 43.328 49.8645 44.3361C48.6781 44.5826 48.1493 44.7962 48.1493 44.7962C48.1493 44.7962 48.5897 44.1072 49.4308 43.8089C59.0057 40.4459 66.3696 53.7273 46.3398 58.9874C46.3398 58.9874 46.572 58.7805 46.6412 58.5951Z" fill="#5382A1"/>
<path d="M37.5992 0.0856804C37.5992 0.0856804 45.9051 8.38626 29.7215 21.1495C16.7441 31.3881 26.7622 37.2258 29.7162 43.8956C22.141 37.0679 16.5817 31.0572 20.3114 25.4633C25.7853 17.2512 40.9503 13.2702 37.5992 0.0856804Z" fill="#E76F00"/>
<path d="M22.0542 79.6911C36.4498 80.6118 58.5559 79.1803 59.0794 72.3755C59.0794 72.3755 58.0731 74.9554 47.1822 77.0039C34.8952 79.3138 19.7411 79.0442 10.7529 77.5637C10.7532 77.5637 12.5927 79.0851 22.0542 79.6911Z" fill="#5382A1"/>
</g>
</g>
<defs>
<clipPath id="clip0_812_11505">
<rect width="60" height="80" fill="white"/>
</clipPath>
</defs>
</svg>
