<svg width="80" height="80" viewBox="0 0 80 80" fill="none" xmlns="http://www.w3.org/2000/svg">
<g clip-path="url(#clip0_812_11427)">
<path d="M78.8127 18.0982C78.8004 18.0619 78.7858 18.0264 78.769 17.992C78.7466 17.9248 78.7189 17.8595 78.6861 17.7967C78.6608 17.7576 78.6326 17.7206 78.6018 17.6857C78.5674 17.6344 78.5298 17.5854 78.4893 17.5389C78.4533 17.5045 78.408 17.4764 78.369 17.4451C78.3244 17.4067 78.2774 17.3712 78.2283 17.3389L63.1877 8.67948C62.9977 8.56977 62.7821 8.51201 62.5627 8.51201C62.3433 8.51201 62.1277 8.56977 61.9377 8.67948L46.894 17.3435C46.8457 17.3763 46.7997 17.4123 46.7565 17.4514C46.7139 17.48 46.6732 17.5113 46.6346 17.5451C46.5937 17.5908 46.5561 17.6394 46.5221 17.6904C46.4955 17.7279 46.4611 17.7607 46.4377 17.8014C46.4061 17.8645 46.379 17.9298 46.3565 17.9967C46.344 18.0326 46.3236 18.0654 46.3127 18.1029C46.2841 18.2089 46.2693 18.3181 46.269 18.4279V34.8717L33.7346 42.0889V9.91229C33.7348 9.80196 33.7201 9.6921 33.6908 9.58573C33.6815 9.54823 33.6596 9.51542 33.6471 9.47948C33.6252 9.41282 33.5981 9.34803 33.5658 9.28573C33.544 9.24511 33.508 9.21229 33.4815 9.17323C33.4471 9.12195 33.4095 9.07289 33.369 9.02636C33.33 8.99301 33.2893 8.96172 33.2471 8.93261C33.2033 8.89462 33.1574 8.85914 33.1096 8.82636L18.0643 0.16698C17.8742 0.0572696 17.6587 -0.000488281 17.4393 -0.000488281C17.2198 -0.000488281 17.0043 0.0572696 16.8143 0.16698L1.77208 8.82636C1.72324 8.85829 1.67724 8.89436 1.63458 8.93417C1.59148 8.96277 1.55026 8.99408 1.51114 9.02792C1.47072 9.07364 1.43365 9.1222 1.4002 9.17323C1.37207 9.21229 1.3377 9.24511 1.31426 9.28573C1.28224 9.34793 1.25558 9.41275 1.23457 9.47948C1.21751 9.51349 1.20238 9.54845 1.18926 9.58417C1.16052 9.69118 1.14581 9.80148 1.14551 9.91229V61.4279C1.14491 61.6479 1.20239 61.8642 1.31213 62.0549C1.42187 62.2455 1.57999 62.4039 1.77051 62.5139L31.8486 79.8326C31.9155 79.8663 31.985 79.8945 32.0565 79.917C32.0893 79.9295 32.1205 79.9482 32.1549 79.9576C32.3647 80.0138 32.5857 80.0138 32.7955 79.9576C32.8268 79.9498 32.8533 79.9326 32.8815 79.9232C32.9569 79.8995 33.0301 79.8692 33.1002 79.8326L63.1877 62.5139C63.3782 62.4039 63.5364 62.2455 63.6461 62.0549C63.7558 61.8642 63.8133 61.6479 63.8127 61.4279V44.981L78.2252 36.6826C78.4169 36.572 78.5758 36.4124 78.6856 36.2202C78.7954 36.0281 78.8522 35.8102 78.8502 35.5889V18.4248C78.8511 18.3148 78.8385 18.2052 78.8127 18.0982ZM17.4377 2.69979L29.9674 9.91073L17.4361 17.1264L4.90801 9.91229L17.4377 2.69979ZM31.2268 12.0748V43.531L23.9565 47.717L18.6924 50.7482V19.2967L25.9627 15.1107L31.2268 12.0748ZM31.2268 76.5717L3.65176 60.7029V12.081L8.91583 15.1092L16.1846 19.2967V52.9185C16.1877 52.9658 16.194 53.0128 16.2033 53.0592C16.2071 53.1212 16.2154 53.1828 16.2283 53.2435C16.2442 53.292 16.2641 53.339 16.2877 53.3842C16.3051 53.438 16.3271 53.4903 16.3533 53.5404C16.3822 53.5828 16.4135 53.6235 16.4471 53.6623C16.4783 53.7084 16.5128 53.7523 16.5502 53.7935C16.5861 53.8279 16.6315 53.8529 16.6705 53.8842C16.7132 53.9212 16.7581 53.9557 16.8049 53.9873L31.2096 62.1404L31.2268 76.5717ZM32.4768 59.9826L19.9674 52.9014L33.1065 45.3373L47.5221 37.0389L60.0424 44.2467L50.8549 49.4904L32.4768 59.9826ZM61.308 60.6967L33.7315 76.5795V62.156L54.1565 50.4998L61.308 46.4139V60.6967ZM61.308 42.0826L56.044 39.0623L48.7736 34.8764V20.592L54.0377 23.6232L61.308 27.8123V42.0826ZM62.558 25.6326L50.0268 18.4185L62.558 11.206L75.0861 18.417L62.558 25.6326ZM63.808 42.0826V27.8123L71.094 23.6232L76.3565 20.592V34.8717L63.808 42.0826Z" fill="#E7392C"/>
</g>
<defs>
<clipPath id="clip0_812_11427">
<rect width="80" height="80" fill="white"/>
</clipPath>
</defs>
</svg>
