<svg width="18" height="22" viewBox="0 0 18 22" fill="none" xmlns="http://www.w3.org/2000/svg">
<g clip-path="url(#clip0_812_5657)">
<path d="M9 18.7338C8.08046 18.7346 7.16979 18.558 6.32009 18.2143C5.4704 17.8706 4.69835 17.3664 4.04814 16.7307C3.39793 16.0949 2.8823 15.34 2.53077 14.5092C2.17925 13.6784 1.99871 12.788 1.9995 11.8889C1.99891 10.9899 2.17959 10.0996 2.53121 9.26895C2.88282 8.4383 3.39848 7.68359 4.04867 7.04798C4.69886 6.41237 5.47084 5.90834 6.32044 5.56471C7.17004 5.22109 8.08059 5.04461 9 5.04538C9.91941 5.04461 10.83 5.22109 11.6796 5.56471C12.5292 5.90834 13.3011 6.41237 13.9513 7.04798C14.6015 7.68359 15.1172 8.4383 15.4688 9.26895C15.8204 10.0996 16.0011 10.9899 16.0005 11.8889C16.0013 12.788 15.8208 13.6784 15.4692 14.5092C15.1177 15.34 14.6021 16.0949 13.9519 16.7307C13.3016 17.3664 12.5296 17.8706 11.6799 18.2143C10.8302 18.558 9.91954 18.7346 9 18.7338ZM16.0305 6.40352L17.4495 5.01605C16.9995 4.51738 16.5495 4.06712 16.0395 3.63738L14.6205 5.04538C13.0345 3.77776 11.0484 3.08639 9 3.08885C6.61305 3.08885 4.32387 4.01599 2.63604 5.66631C0.948211 7.31663 0 9.55494 0 11.8889C0 14.2228 0.948211 16.4611 2.63604 18.1114C4.32387 19.7617 6.61305 20.6889 9 20.6889C13.9995 20.6889 18 16.7479 18 11.8889C18.001 9.89455 17.3062 7.95957 16.0305 6.40352ZM7.9995 12.8671H10.0005V7.00045H7.9995V12.8671ZM12 0.155518H6V2.11205H12V0.155518Z" fill="#121212"/>
</g>
<defs>
<clipPath id="clip0_812_5657">
<rect width="18" height="22" fill="white"/>
</clipPath>
</defs>
</svg>
