<svg width="45" height="45" viewBox="0 0 45 45" fill="none" xmlns="http://www.w3.org/2000/svg">
<path fill-rule="evenodd" clip-rule="evenodd" d="M22.5 0C34.9181 0 45 10.0819 45 22.5C45 34.9181 34.9181 45 22.5 45C10.0819 45 0 34.9181 0 22.5C0 10.0819 10.0819 0 22.5 0ZM15.4655 35.1449V17.5737H9.62394V35.1449H15.4655ZM36.5258 35.1449V25.0686C36.5258 19.6713 33.6442 17.1606 29.8014 17.1606C26.7028 17.1606 25.3149 18.8647 24.5377 20.0616V17.5737H18.6977C18.7751 19.2223 18.6977 35.1449 18.6977 35.1449H24.5377V25.3319C24.5377 24.8067 24.5754 24.2816 24.7302 23.9062C25.1517 22.8573 26.1134 21.7706 27.7269 21.7706C29.8392 21.7706 30.6855 23.3825 30.6855 25.7436V35.1449H36.5258ZM12.5842 9.10107C10.5855 9.10107 9.27976 10.415 9.27976 12.1373C9.27976 13.8232 10.5458 15.1734 12.5068 15.1734H12.5445C14.5814 15.1734 15.8492 13.8232 15.8492 12.1373C15.8114 10.415 14.5815 9.10107 12.5842 9.10107Z" fill="black"/>
</svg>
