<svg width="45" height="45" viewBox="0 0 45 45" fill="none" xmlns="http://www.w3.org/2000/svg">
<path fill-rule="evenodd" clip-rule="evenodd" d="M22.5 45C34.9264 45 45 34.9264 45 22.5C45 10.0736 34.9264 0 22.5 0C10.0736 0 0 10.0736 0 22.5C0 34.9264 10.0736 45 22.5 45Z" fill="black"/>
<path fill-rule="evenodd" clip-rule="evenodd" d="M11.25 16.3515V29.0923C11.25 29.7854 11.7573 30.3472 12.4563 30.3472H32.3405C33.0387 30.3472 33.5468 29.7789 33.5468 29.0923V16.3515C33.5468 15.5908 33.0924 15 32.3405 15H12.4563C11.6753 15 11.25 15.6053 11.25 16.3515ZM13.0834 17.4612C13.0834 17.1542 13.2692 16.9785 13.566 16.9785C13.7497 16.9785 20.9751 21.5569 21.4127 21.8255L22.5435 22.5288C22.9021 22.2885 23.2621 22.0831 23.6337 21.8342C24.3922 21.3494 31.1407 16.9785 31.3265 16.9785C31.6241 16.9785 31.8092 17.1542 31.8092 17.4612C31.8092 17.7864 31.1828 18.1094 30.7749 18.3583C28.2121 19.9202 25.65 21.623 23.1126 23.243C22.9645 23.3431 22.6778 23.5573 22.463 23.5246C22.2235 23.4876 14.871 18.764 13.5334 17.9773C13.3323 17.859 13.0834 17.7508 13.0834 17.4612Z" fill="white"/>
</svg>
