<svg width="45" height="45" viewBox="0 0 45 45" fill="none" xmlns="http://www.w3.org/2000/svg">
<path fill-rule="evenodd" clip-rule="evenodd" d="M22.5 0C34.9181 0 45 10.0819 45 22.5C45 34.9181 34.9181 45 22.5 45C10.0819 45 0 34.9181 0 22.5C0 10.0819 10.0819 0 22.5 0ZM18.5369 34.467C28.4934 34.467 33.9375 26.2167 33.9375 19.0666C33.9375 18.8308 33.9375 18.5951 33.9262 18.3705C34.9813 17.6073 35.9018 16.6532 36.6314 15.5644C35.6661 15.9909 34.6221 16.2828 33.5221 16.4174C34.6446 15.7439 35.4977 14.6888 35.9018 13.4205C34.8579 14.0378 33.7017 14.4867 32.467 14.7337C31.4792 13.6786 30.0761 13.0276 28.5158 13.0276C25.53 13.0276 23.1055 15.4521 23.1055 18.438C23.1055 18.8645 23.1504 19.2798 23.2514 19.6726C18.7502 19.4482 14.7654 17.293 12.0939 14.0153C11.6336 14.8123 11.3643 15.7439 11.3643 16.7317C11.3643 18.6063 12.3184 20.2676 13.7776 21.2329C12.8908 21.2105 12.0602 20.9635 11.3306 20.5595V20.6268C11.3306 23.2534 13.1939 25.431 15.6746 25.9362C15.2256 26.0596 14.7429 26.127 14.2491 26.127C13.901 26.127 13.5643 26.0933 13.2276 26.0259C13.9123 28.1811 15.9103 29.7414 18.2788 29.7862C16.4267 31.2343 14.0919 32.0986 11.5551 32.0986C11.1173 32.0986 10.6908 32.0761 10.2642 32.02C12.6327 33.569 15.4838 34.467 18.5369 34.467Z" fill="black"/>
</svg>
