<svg width="843" height="888" viewBox="0 0 843 888" fill="none" xmlns="http://www.w3.org/2000/svg">
<g clip-path="url(#clip0_591_2)">
<path d="M721 887.5H842L842.022 840.5M721 887.5L842.022 840.5M721 887.5L720.977 836M720.649 118.543L720.65 119.75L720.675 175.375M720.649 118.543L719.796 119.397M720.649 118.543L842.326 181.5M720.649 118.543L796.5 0.5M720.649 118.543L686.5 0.5M719.796 119.397L842.369 86.5M719.796 119.397L668.5 170.712M423.216 416.085L481.78 357.5M423.216 416.085L325.5 318.339M423.216 416.085L423.114 375M122.35 115.105L123.204 115.959L149.5 142.272M122.35 115.105V116.312V166.906M122.35 115.105L269.687 70.5M122.35 115.105L199.715 0.5M122.35 115.105L42.5 137.972M122.35 115.105L36.2218 70.5M199.715 0.5L269.687 70.5M199.715 0.5L152.461 70.5L122.35 52M199.715 0.5H39.5M422.862 223.735L423.216 224.089M422.862 223.735L318.918 119.75M422.862 223.735L423.114 375M423.216 224.089L423.57 223.735L462.5 184.79M423.216 224.089L481.78 357.5M423.216 224.089L374.358 271.214M842.022 840.5L842.06 758.5M842.022 840.5L811.752 820M720.941 758.5L842.086 700M720.941 758.5L789.21 674M720.941 758.5L720.877 617.5M720.941 758.5L781.481 799.5M720.941 758.5L720.977 836M842.129 608.5L720.861 583.5M842.129 608.5L842.156 549.5M842.129 608.5L842.086 700M842.129 608.5L789.21 674M720.861 583.5L842.156 549.5M720.861 583.5L720.824 501M720.861 583.5L720.877 617.5M842.156 549.5L720.824 501M842.156 549.5L842.202 450M720.824 501L807.5 464.581M720.824 501L720.785 416.085M842.202 450L807.5 464.581M842.202 450L781.481 406M842.202 450L842.251 342.5M720.76 362L720.785 416.085M720.76 362L781.481 406M720.76 362L781.518 325.5M720.76 362L720.727 289M842.276 289L842.251 342.5M842.276 289L781.518 325.5M842.276 289L781.488 260M842.276 289L842.303 231M720.701 231L720.727 289M720.701 231L781.488 260M720.701 231L781.513 206.25M720.701 231L720.675 175.375M842.326 181.5L842.369 86.5M842.326 181.5L842.303 231M842.326 181.5L781.513 206.25M842.369 86.5L842.409 0.5H796.5M842.369 86.5L796.5 0.5M796.5 0.5H686.5M686.5 0.5H646.72L613.5 33.7326M686.5 0.5L668.5 170.712M668.5 170.712L613.5 33.7326M668.5 170.712L628.726 210.5M613.5 33.7326L628.726 210.5M613.5 33.7326L550.757 96.5M628.726 210.5L550.757 96.5M628.726 210.5L481.78 357.5M550.757 96.5L552.173 151L555.5 279L511.5 234.295M550.757 96.5L520.768 126.5M462.5 184.79L481.78 357.5M462.5 184.79L511.5 234.295M462.5 184.79L520.768 126.5M325.5 318.339L390.5 191.36L258.5 251.306M325.5 318.339L258.5 251.306M325.5 318.339L374.358 271.214M258.5 251.306L288.709 185.528M258.5 251.306L188.72 181.5M318.918 119.75L149.5 142.272M318.918 119.75L269.687 70.5M318.918 119.75L288.709 185.528M149.5 142.272L269.687 70.5M149.5 142.272L188.72 181.5M0.5 52V0.5H39.5M0.5 52H122.35M0.5 52V126M0.5 52L36.2218 70.5M0.5 150V217.5H118M0.5 150L118 217.5M0.5 150L42.5 137.972M0.5 150V126M118 217.5H122.35V166.906M842.086 700L842.06 758.5M789.21 674L720.877 617.5M807.5 464.581L720.785 416.085M781.481 406L842.251 342.5M781.518 325.5L720.727 289M781.488 260L842.303 231M781.513 206.25L720.675 175.375M511.5 234.295L520.768 126.5M781.481 799.5L842.06 758.5M781.481 799.5L811.752 820M811.752 820L720.977 836M423.114 375L374.358 271.214M288.709 185.528L188.72 181.5M122.35 52L39.5 0.5M122.35 166.906L42.5 137.972M0.5 126L36.2218 70.5" stroke="#121212"/>
</g>
<defs>
<clipPath id="clip0_591_2">
<rect width="843" height="888" fill="white"/>
</clipPath>
</defs>
</svg>
